<svg xmlns="http://www.w3.org/2000/svg" xmlns:xlink="http://www.w3.org/1999/xlink" width="1147" height="215.872" viewBox="0 0 1147 215.872">
  <defs>
    <linearGradient id="linear-gradient" y1="0.519" x2="1" y2="0.52" gradientUnits="objectBoundingBox">
      <stop offset="0" stop-color="#83d9d2"/>
      <stop offset="1" stop-color="#39d7be"/>
    </linearGradient>
    <clipPath id="clip-path">
      <rect id="Rectangle_7963" data-name="Rectangle 7963" width="345" height="215.872" rx="10" transform="translate(0 13)" fill="url(#linear-gradient)"/>
    </clipPath>
    <linearGradient id="linear-gradient-4" x1="0.036" y1="0.636" x2="0.967" y2="0.371" gradientUnits="objectBoundingBox">
      <stop offset="0" stop-color="#fff" stop-opacity="0.4"/>
      <stop offset="1" stop-color="#fffefe" stop-opacity="0"/>
    </linearGradient>
    <clipPath id="clip-path-2">
      <rect id="Rectangle_7967" data-name="Rectangle 7967" width="345" height="215.872" transform="translate(0 13)" fill="none"/>
    </clipPath>
    <linearGradient id="linear-gradient-6" y1="0.519" x2="1" y2="0.52" gradientUnits="objectBoundingBox">
      <stop offset="0" stop-color="#90caf9"/>
      <stop offset="1" stop-color="#3798e6"/>
    </linearGradient>
    <linearGradient id="linear-gradient-9" x1="0.874" y1="0.981" x2="0.033" y2="0.027" gradientUnits="objectBoundingBox">
      <stop offset="0" stop-color="#fff"/>
      <stop offset="1" stop-color="#bebebe"/>
    </linearGradient>
    <filter id="Path_1171" x="427.092" y="94.588" width="99.304" height="15.496" filterUnits="userSpaceOnUse">
      <feOffset dx="-1" dy="-1" input="SourceAlpha"/>
      <feGaussianBlur stdDeviation="0.5" result="blur"/>
      <feFlood flood-color="#fff" flood-opacity="0.769"/>
      <feComposite operator="in" in2="blur"/>
      <feComposite in="SourceGraphic"/>
    </filter>
    <linearGradient id="linear-gradient-10" x1="0.874" y1="0.981" x2="0.033" y2="0.027" gradientUnits="objectBoundingBox">
      <stop offset="0" stop-color="#fff"/>
      <stop offset="1" stop-color="#cecac8"/>
    </linearGradient>
    <filter id="Path_1172" x="429.092" y="96.588" width="99.304" height="15.496" filterUnits="userSpaceOnUse">
      <feOffset dx="1" dy="1" input="SourceAlpha"/>
      <feGaussianBlur stdDeviation="0.5" result="blur-2"/>
      <feFlood flood-opacity="0.431"/>
      <feComposite operator="in" in2="blur-2"/>
      <feComposite in="SourceGraphic"/>
    </filter>
    <filter id="Path_1172-2" x="429.092" y="96.588" width="99.304" height="15.496" filterUnits="userSpaceOnUse">
      <feOffset dy="3" input="SourceAlpha"/>
      <feGaussianBlur stdDeviation="3" result="blur-3"/>
      <feFlood flood-opacity="0.161" result="color"/>
      <feComposite operator="out" in="SourceGraphic" in2="blur-3"/>
      <feComposite operator="in" in="color"/>
      <feComposite operator="in" in2="SourceGraphic"/>
    </filter>
    <filter id="Path_1173" x="427.98" y="137.074" width="20.834" height="29.862" filterUnits="userSpaceOnUse">
      <feOffset dx="-1" dy="-1" input="SourceAlpha"/>
      <feGaussianBlur stdDeviation="0.5" result="blur-4"/>
      <feFlood flood-color="#fff" flood-opacity="0.769"/>
      <feComposite operator="in" in2="blur-4"/>
      <feComposite in="SourceGraphic"/>
    </filter>
    <filter id="Path_1174" x="429.98" y="139.074" width="20.834" height="29.862" filterUnits="userSpaceOnUse">
      <feOffset dx="1" dy="1" input="SourceAlpha"/>
      <feGaussianBlur stdDeviation="0.5" result="blur-5"/>
      <feFlood flood-opacity="0.431"/>
      <feComposite operator="in" in2="blur-5"/>
      <feComposite in="SourceGraphic"/>
    </filter>
    <filter id="Path_1174-2" x="429.98" y="139.074" width="20.834" height="29.862" filterUnits="userSpaceOnUse">
      <feOffset dy="3" input="SourceAlpha"/>
      <feGaussianBlur stdDeviation="3" result="blur-6"/>
      <feFlood flood-opacity="0.161" result="color-2"/>
      <feComposite operator="out" in="SourceGraphic" in2="blur-6"/>
      <feComposite operator="in" in="color-2"/>
      <feComposite operator="in" in2="SourceGraphic"/>
    </filter>
    <filter id="Path_1169" x="426.499" y="26.501" width="54.501" height="52.442" filterUnits="userSpaceOnUse">
      <feOffset dx="-1" dy="-1" input="SourceAlpha"/>
      <feGaussianBlur stdDeviation="0.5" result="blur-7"/>
      <feFlood flood-color="#fff" flood-opacity="0.769"/>
      <feComposite operator="in" in2="blur-7"/>
      <feComposite in="SourceGraphic"/>
    </filter>
    <filter id="Path_1170" x="428.499" y="28.501" width="54.501" height="52.442" filterUnits="userSpaceOnUse">
      <feOffset dx="1" dy="1" input="SourceAlpha"/>
      <feGaussianBlur stdDeviation="0.5" result="blur-8"/>
      <feFlood flood-opacity="0.431"/>
      <feComposite operator="in" in2="blur-8"/>
      <feComposite in="SourceGraphic"/>
    </filter>
    <filter id="Path_1170-2" x="428.499" y="28.501" width="54.501" height="52.442" filterUnits="userSpaceOnUse">
      <feOffset dy="3" input="SourceAlpha"/>
      <feGaussianBlur stdDeviation="3" result="blur-9"/>
      <feFlood flood-opacity="0.161" result="color-3"/>
      <feComposite operator="out" in="SourceGraphic" in2="blur-9"/>
      <feComposite operator="in" in="color-3"/>
      <feComposite operator="in" in2="SourceGraphic"/>
    </filter>
    <linearGradient id="linear-gradient-15" y1="0.519" x2="1" y2="0.52" gradientUnits="objectBoundingBox">
      <stop offset="0" stop-color="#ffbe96"/>
      <stop offset="1" stop-color="#fe8eab"/>
    </linearGradient>
    <filter id="ic_shopping_cart_24px" x="20.5" y="35.492" width="45.008" height="45.008" filterUnits="userSpaceOnUse">
      <feOffset dx="-1" dy="-1" input="SourceAlpha"/>
      <feGaussianBlur stdDeviation="0.5" result="blur-10"/>
      <feFlood flood-color="#fff" flood-opacity="0.769"/>
      <feComposite operator="in" in2="blur-10"/>
      <feComposite in="SourceGraphic"/>
    </filter>
    <filter id="ic_shopping_cart_24px-2" x="22.5" y="37.492" width="45.008" height="45.008" filterUnits="userSpaceOnUse">
      <feOffset dx="1" dy="1" input="SourceAlpha"/>
      <feGaussianBlur stdDeviation="0.5" result="blur-11"/>
      <feFlood flood-opacity="0.431"/>
      <feComposite operator="in" in2="blur-11"/>
      <feComposite in="SourceGraphic"/>
    </filter>
    <filter id="ic_shopping_cart_24px-3" x="22.5" y="37.492" width="45.008" height="45.008" filterUnits="userSpaceOnUse">
      <feOffset dy="3" input="SourceAlpha"/>
      <feGaussianBlur stdDeviation="3" result="blur-12"/>
      <feFlood flood-opacity="0.161" result="color-4"/>
      <feComposite operator="out" in="SourceGraphic" in2="blur-12"/>
      <feComposite operator="in" in="color-4"/>
      <feComposite operator="in" in2="SourceGraphic"/>
    </filter>
    <filter id="Path_1165" x="21.7" y="96.176" width="125.368" height="19.672" filterUnits="userSpaceOnUse">
      <feOffset dx="-1" dy="-1" input="SourceAlpha"/>
      <feGaussianBlur stdDeviation="0.5" result="blur-13"/>
      <feFlood flood-color="#fff" flood-opacity="0.769"/>
      <feComposite operator="in" in2="blur-13"/>
      <feComposite in="SourceGraphic"/>
    </filter>
    <linearGradient id="linear-gradient-21" x1="0.874" y1="0.981" x2="0.033" y2="0.027" gradientUnits="objectBoundingBox">
      <stop offset="0" stop-color="#fff"/>
      <stop offset="1" stop-color="#f3dcd0"/>
    </linearGradient>
    <filter id="Path_1166" x="23.7" y="98.176" width="125.368" height="19.672" filterUnits="userSpaceOnUse">
      <feOffset dx="1" dy="1" input="SourceAlpha"/>
      <feGaussianBlur stdDeviation="0.5" result="blur-14"/>
      <feFlood flood-opacity="0.431"/>
      <feComposite operator="in" in2="blur-14"/>
      <feComposite in="SourceGraphic"/>
    </filter>
    <filter id="Path_1166-2" x="23.7" y="98.176" width="125.368" height="19.672" filterUnits="userSpaceOnUse">
      <feOffset dy="3" input="SourceAlpha"/>
      <feGaussianBlur stdDeviation="3" result="blur-15"/>
      <feFlood flood-opacity="0.161" result="color-5"/>
      <feComposite operator="out" in="SourceGraphic" in2="blur-15"/>
      <feComposite operator="in" in="color-5"/>
      <feComposite operator="in" in2="SourceGraphic"/>
    </filter>
    <filter id="Path_1167" x="22.165" y="138.519" width="33.599" height="29.973" filterUnits="userSpaceOnUse">
      <feOffset dx="-1" dy="-1" input="SourceAlpha"/>
      <feGaussianBlur stdDeviation="0.5" result="blur-16"/>
      <feFlood flood-color="#fff" flood-opacity="0.769"/>
      <feComposite operator="in" in2="blur-16"/>
      <feComposite in="SourceGraphic"/>
    </filter>
    <filter id="Path_1168" x="24.165" y="140.519" width="33.599" height="29.973" filterUnits="userSpaceOnUse">
      <feOffset dx="1" dy="1" input="SourceAlpha"/>
      <feGaussianBlur stdDeviation="0.5" result="blur-17"/>
      <feFlood flood-opacity="0.431"/>
      <feComposite operator="in" in2="blur-17"/>
      <feComposite in="SourceGraphic"/>
    </filter>
    <filter id="Path_1168-2" x="24.165" y="140.519" width="33.599" height="29.973" filterUnits="userSpaceOnUse">
      <feOffset dy="3" input="SourceAlpha"/>
      <feGaussianBlur stdDeviation="3" result="blur-18"/>
      <feFlood flood-opacity="0.161" result="color-6"/>
      <feComposite operator="out" in="SourceGraphic" in2="blur-18"/>
      <feComposite operator="in" in="color-6"/>
      <feComposite operator="in" in2="SourceGraphic"/>
    </filter>
  </defs>
  <g id="Group_1618" data-name="Group 1618" transform="translate(-542 -185)">
    <g id="greenCard" transform="translate(1344 172)" clip-path="url(#clip-path)">
      <rect id="Rectangle_7962" data-name="Rectangle 7962" width="345" height="212" rx="10" transform="translate(0 15.064)" fill="url(#linear-gradient)"/>
      <g id="Group_1650" data-name="Group 1650" transform="translate(-352 -48)">
        <g id="Group_1649" data-name="Group 1649" transform="translate(50 -120)" opacity="0.53">
          <path id="Path_1130" data-name="Path 1130" d="M104.123,20.721l.845,150.745s.827.437,0,.669C97.719,174.171,95.168,174,87,174A87.016,87.016,0,0,1,38.109,15.012c.1-.072,3.15,0,3.15,0l55-.051Z" transform="translate(542 168)" fill="url(#linear-gradient-4)"/>
          <path id="Path_1131" data-name="Path 1131" d="M99.393,20.022S113.458-8.8,104.425,32.243C95.375,73.366,85.055,190,85.055,190s.769,5.266-.7,5.065A97.936,97.936,0,0,1,0,98,99.931,99.931,0,0,1,47.176,13.611c1.431-.886,1.778,1.374,3.4.418C62.984,6.733,99.393,20.022,99.393,20.022Z" transform="translate(654.244 287.447) rotate(83)" fill="url(#linear-gradient-4)"/>
        </g>
      </g>
    </g>
    <g id="Group_1620" data-name="Group 1620" transform="translate(54 -12.936)">
      <g id="blueCard" transform="translate(889 184.936)" clip-path="url(#clip-path-2)">
        <rect id="Rectangle_7966" data-name="Rectangle 7966" width="345" height="212" rx="10" transform="translate(0 14.936)" fill="url(#linear-gradient-6)"/>
        <g id="Group_1654" data-name="Group 1654" transform="translate(-352 -48)">
          <g id="Group_1653" data-name="Group 1653" transform="translate(50 -120)" opacity="0.53">
            <path id="Path_1134" data-name="Path 1134" d="M104.123,20.721l.845,150.745s.827.437,0,.669C97.719,174.171,95.168,174,87,174A87.016,87.016,0,0,1,38.109,15.012c.1-.072,3.15,0,3.15,0l55-.051Z" transform="translate(542 168)" fill="url(#linear-gradient-4)"/>
            <path id="Path_1135" data-name="Path 1135" d="M99.393,20.022S113.458-8.8,104.425,32.243C95.375,73.366,85.055,190,85.055,190s.769,5.266-.7,5.065A97.936,97.936,0,0,1,0,98,99.931,99.931,0,0,1,47.176,13.611c1.431-.886,1.778,1.374,3.4.418C62.984,6.733,99.393,20.022,99.393,20.022Z" transform="translate(654.244 287.447) rotate(83)" fill="url(#linear-gradient-4)"/>
          </g>
        </g>
      </g>
      <g id="Group_1764" data-name="Group 1764" transform="translate(578 9.38)">
        <g transform="matrix(1, 0, 0, 1, -90, 188.56)" filter="url(#Path_1171)">
          <path id="Path_1171-2" data-name="Path 1171" d="M6.272.112A5.76,5.76,0,0,1,3.416-.616,5.394,5.394,0,0,1,1.352-2.648a5.722,5.722,0,0,1-.76-2.936,5.679,5.679,0,0,1,.76-2.928,5.411,5.411,0,0,1,2.064-2.024,5.76,5.76,0,0,1,2.856-.728,5.792,5.792,0,0,1,2.872.728A5.354,5.354,0,0,1,11.2-8.512a5.726,5.726,0,0,1,.752,2.928A5.77,5.77,0,0,1,11.2-2.648,5.337,5.337,0,0,1,9.144-.616,5.792,5.792,0,0,1,6.272.112Zm0-1.584a3.833,3.833,0,0,0,1.968-.5,3.494,3.494,0,0,0,1.352-1.44,4.624,4.624,0,0,0,.488-2.168,4.575,4.575,0,0,0-.488-2.16A3.452,3.452,0,0,0,8.24-9.168a3.881,3.881,0,0,0-1.968-.5,3.881,3.881,0,0,0-1.968.5A3.452,3.452,0,0,0,2.952-7.744a4.575,4.575,0,0,0-.488,2.16,4.624,4.624,0,0,0,.488,2.168A3.494,3.494,0,0,0,4.3-1.976,3.833,3.833,0,0,0,6.272-1.472ZM21.728-8.816V0H19.9V-1.04a2.952,2.952,0,0,1-1.128.856A3.577,3.577,0,0,1,17.3.128,3.953,3.953,0,0,1,15.432-.3a3.121,3.121,0,0,1-1.3-1.28,4.152,4.152,0,0,1-.472-2.048V-8.816h1.808V-3.9a2.559,2.559,0,0,0,.592,1.816,2.107,2.107,0,0,0,1.616.632A2.133,2.133,0,0,0,19.3-2.088,2.537,2.537,0,0,0,19.9-3.9V-8.816Zm4.528,1.488v4.88a.937.937,0,0,0,.232.712,1.154,1.154,0,0,0,.792.216H28.4V0H26.96a2.776,2.776,0,0,1-1.888-.576,2.374,2.374,0,0,1-.656-1.872v-4.88h-1.04V-8.816h1.04v-2.192h1.84v2.192H28.4v1.488ZM38.064.144a4.515,4.515,0,0,1-2.256-.568,4.08,4.08,0,0,1-1.584-1.6,4.826,4.826,0,0,1-.576-2.392A4.734,4.734,0,0,1,34.24-6.8a4.089,4.089,0,0,1,1.616-1.6,4.689,4.689,0,0,1,2.288-.56,4.689,4.689,0,0,1,2.288.56,4.089,4.089,0,0,1,1.616,1.6,4.734,4.734,0,0,1,.592,2.384,4.636,4.636,0,0,1-.608,2.384A4.21,4.21,0,0,1,40.376-.424,4.773,4.773,0,0,1,38.064.144Zm0-1.584a2.714,2.714,0,0,0,1.32-.336,2.56,2.56,0,0,0,1-1.008,3.241,3.241,0,0,0,.384-1.632A3.308,3.308,0,0,0,40.4-6.04a2.484,2.484,0,0,0-.976-1,2.669,2.669,0,0,0-1.312-.336,2.625,2.625,0,0,0-1.3.336,2.4,2.4,0,0,0-.952,1A3.432,3.432,0,0,0,35.5-4.416a3.093,3.093,0,0,0,.728,2.2A2.406,2.406,0,0,0,38.064-1.44Zm10.08-5.888H46.512V0h-1.84V-7.328h-1.04V-8.816h1.04V-9.44a2.774,2.774,0,0,1,.808-2.216,3.831,3.831,0,0,1,2.536-.7v1.52a1.712,1.712,0,0,0-1.168.312,1.43,1.43,0,0,0-.336,1.08v.624h1.632Zm9.44,7.44A4.98,4.98,0,0,1,55.568-.28,3.308,3.308,0,0,1,54.16-1.392a2.824,2.824,0,0,1-.512-1.68H55.6a1.762,1.762,0,0,0,.568,1.184,2.013,2.013,0,0,0,1.416.464,2.181,2.181,0,0,0,1.472-.456,1.482,1.482,0,0,0,.528-1.176,1.284,1.284,0,0,0-.328-.912,2.194,2.194,0,0,0-.816-.544,12.306,12.306,0,0,0-1.352-.416,12.667,12.667,0,0,1-1.768-.584,2.922,2.922,0,0,1-1.16-.92A2.659,2.659,0,0,1,53.68-8.1a2.958,2.958,0,0,1,.48-1.68,3.066,3.066,0,0,1,1.344-1.1,4.883,4.883,0,0,1,2-.384,4.168,4.168,0,0,1,2.648.808A2.981,2.981,0,0,1,61.3-8.24H59.28A1.461,1.461,0,0,0,58.7-9.28a2.129,2.129,0,0,0-1.392-.432,1.975,1.975,0,0,0-1.28.4,1.394,1.394,0,0,0-.5,1.152,1.169,1.169,0,0,0,.312.84,2.2,2.2,0,0,0,.792.52,12.3,12.3,0,0,0,1.312.416,13.7,13.7,0,0,1,1.8.608,3,3,0,0,1,1.184.936,2.69,2.69,0,0,1,.488,1.688,3.035,3.035,0,0,1-.456,1.6A3.29,3.29,0,0,1,59.64-.344,4.379,4.379,0,0,1,57.584.112Zm8.128-7.44v4.88a.937.937,0,0,0,.232.712,1.154,1.154,0,0,0,.792.216h1.12V0h-1.44a2.776,2.776,0,0,1-1.888-.576,2.374,2.374,0,0,1-.656-1.872v-4.88h-1.04V-8.816h1.04v-2.192h1.84v2.192h2.144v1.488ZM73.36.144A4.515,4.515,0,0,1,71.1-.424a4.08,4.08,0,0,1-1.584-1.6,4.826,4.826,0,0,1-.576-2.392A4.734,4.734,0,0,1,69.536-6.8a4.089,4.089,0,0,1,1.616-1.6,4.689,4.689,0,0,1,2.288-.56,4.689,4.689,0,0,1,2.288.56,4.089,4.089,0,0,1,1.616,1.6,4.734,4.734,0,0,1,.592,2.384,4.635,4.635,0,0,1-.608,2.384A4.21,4.21,0,0,1,75.672-.424,4.773,4.773,0,0,1,73.36.144Zm0-1.584a2.714,2.714,0,0,0,1.32-.336,2.56,2.56,0,0,0,1-1.008,3.241,3.241,0,0,0,.384-1.632A3.308,3.308,0,0,0,75.7-6.04a2.484,2.484,0,0,0-.976-1,2.669,2.669,0,0,0-1.312-.336,2.625,2.625,0,0,0-1.3.336,2.4,2.4,0,0,0-.952,1A3.432,3.432,0,0,0,70.8-4.416a3.093,3.093,0,0,0,.728,2.2A2.406,2.406,0,0,0,73.36-1.44Zm5.776-2.976a5,5,0,0,1,.552-2.392A3.926,3.926,0,0,1,81.216-8.4a4.42,4.42,0,0,1,2.24-.56A4.4,4.4,0,0,1,86.1-8.2,3.741,3.741,0,0,1,87.52-6.032H85.552a2.081,2.081,0,0,0-.768-1.024,2.268,2.268,0,0,0-1.328-.368,2.208,2.208,0,0,0-1.784.792,3.351,3.351,0,0,0-.664,2.216,3.384,3.384,0,0,0,.664,2.224,2.2,2.2,0,0,0,1.784.8,2.024,2.024,0,0,0,2.1-1.392H87.52A3.94,3.94,0,0,1,86.08-.648a4.25,4.25,0,0,1-2.624.792,4.371,4.371,0,0,1-2.24-.568,3.981,3.981,0,0,1-1.528-1.6A5,5,0,0,1,79.136-4.416Zm13.7.016L96.9,0H94.432L91.168-3.792V0H89.344V-11.84h1.824v6.88l3.2-3.856H96.9Z" transform="translate(429 109.44)" fill="url(#linear-gradient-9)"/>
        </g>
        <g data-type="innerShadowGroup">
          <g transform="matrix(1, 0, 0, 1, -90, 188.56)" filter="url(#Path_1172)">
            <path id="Path_1172-3" data-name="Path 1172" d="M6.272.112A5.76,5.76,0,0,1,3.416-.616,5.394,5.394,0,0,1,1.352-2.648a5.722,5.722,0,0,1-.76-2.936,5.679,5.679,0,0,1,.76-2.928,5.411,5.411,0,0,1,2.064-2.024,5.76,5.76,0,0,1,2.856-.728,5.792,5.792,0,0,1,2.872.728A5.354,5.354,0,0,1,11.2-8.512a5.726,5.726,0,0,1,.752,2.928A5.77,5.77,0,0,1,11.2-2.648,5.337,5.337,0,0,1,9.144-.616,5.792,5.792,0,0,1,6.272.112Zm0-1.584a3.833,3.833,0,0,0,1.968-.5,3.494,3.494,0,0,0,1.352-1.44,4.624,4.624,0,0,0,.488-2.168,4.575,4.575,0,0,0-.488-2.16A3.452,3.452,0,0,0,8.24-9.168a3.881,3.881,0,0,0-1.968-.5,3.881,3.881,0,0,0-1.968.5A3.452,3.452,0,0,0,2.952-7.744a4.575,4.575,0,0,0-.488,2.16,4.624,4.624,0,0,0,.488,2.168A3.494,3.494,0,0,0,4.3-1.976,3.833,3.833,0,0,0,6.272-1.472ZM21.728-8.816V0H19.9V-1.04a2.952,2.952,0,0,1-1.128.856A3.577,3.577,0,0,1,17.3.128,3.953,3.953,0,0,1,15.432-.3a3.121,3.121,0,0,1-1.3-1.28,4.152,4.152,0,0,1-.472-2.048V-8.816h1.808V-3.9a2.559,2.559,0,0,0,.592,1.816,2.107,2.107,0,0,0,1.616.632A2.133,2.133,0,0,0,19.3-2.088,2.537,2.537,0,0,0,19.9-3.9V-8.816Zm4.528,1.488v4.88a.937.937,0,0,0,.232.712,1.154,1.154,0,0,0,.792.216H28.4V0H26.96a2.776,2.776,0,0,1-1.888-.576,2.374,2.374,0,0,1-.656-1.872v-4.88h-1.04V-8.816h1.04v-2.192h1.84v2.192H28.4v1.488ZM38.064.144a4.515,4.515,0,0,1-2.256-.568,4.08,4.08,0,0,1-1.584-1.6,4.826,4.826,0,0,1-.576-2.392A4.734,4.734,0,0,1,34.24-6.8a4.089,4.089,0,0,1,1.616-1.6,4.689,4.689,0,0,1,2.288-.56,4.689,4.689,0,0,1,2.288.56,4.089,4.089,0,0,1,1.616,1.6,4.734,4.734,0,0,1,.592,2.384,4.636,4.636,0,0,1-.608,2.384A4.21,4.21,0,0,1,40.376-.424,4.773,4.773,0,0,1,38.064.144Zm0-1.584a2.714,2.714,0,0,0,1.32-.336,2.56,2.56,0,0,0,1-1.008,3.241,3.241,0,0,0,.384-1.632A3.308,3.308,0,0,0,40.4-6.04a2.484,2.484,0,0,0-.976-1,2.669,2.669,0,0,0-1.312-.336,2.625,2.625,0,0,0-1.3.336,2.4,2.4,0,0,0-.952,1A3.432,3.432,0,0,0,35.5-4.416a3.093,3.093,0,0,0,.728,2.2A2.406,2.406,0,0,0,38.064-1.44Zm10.08-5.888H46.512V0h-1.84V-7.328h-1.04V-8.816h1.04V-9.44a2.774,2.774,0,0,1,.808-2.216,3.831,3.831,0,0,1,2.536-.7v1.52a1.712,1.712,0,0,0-1.168.312,1.43,1.43,0,0,0-.336,1.08v.624h1.632Zm9.44,7.44A4.98,4.98,0,0,1,55.568-.28,3.308,3.308,0,0,1,54.16-1.392a2.824,2.824,0,0,1-.512-1.68H55.6a1.762,1.762,0,0,0,.568,1.184,2.013,2.013,0,0,0,1.416.464,2.181,2.181,0,0,0,1.472-.456,1.482,1.482,0,0,0,.528-1.176,1.284,1.284,0,0,0-.328-.912,2.194,2.194,0,0,0-.816-.544,12.306,12.306,0,0,0-1.352-.416,12.667,12.667,0,0,1-1.768-.584,2.922,2.922,0,0,1-1.16-.92A2.659,2.659,0,0,1,53.68-8.1a2.958,2.958,0,0,1,.48-1.68,3.066,3.066,0,0,1,1.344-1.1,4.883,4.883,0,0,1,2-.384,4.168,4.168,0,0,1,2.648.808A2.981,2.981,0,0,1,61.3-8.24H59.28A1.461,1.461,0,0,0,58.7-9.28a2.129,2.129,0,0,0-1.392-.432,1.975,1.975,0,0,0-1.28.4,1.394,1.394,0,0,0-.5,1.152,1.169,1.169,0,0,0,.312.84,2.2,2.2,0,0,0,.792.52,12.3,12.3,0,0,0,1.312.416,13.7,13.7,0,0,1,1.8.608,3,3,0,0,1,1.184.936,2.69,2.69,0,0,1,.488,1.688,3.035,3.035,0,0,1-.456,1.6A3.29,3.29,0,0,1,59.64-.344,4.379,4.379,0,0,1,57.584.112Zm8.128-7.44v4.88a.937.937,0,0,0,.232.712,1.154,1.154,0,0,0,.792.216h1.12V0h-1.44a2.776,2.776,0,0,1-1.888-.576,2.374,2.374,0,0,1-.656-1.872v-4.88h-1.04V-8.816h1.04v-2.192h1.84v2.192h2.144v1.488ZM73.36.144A4.515,4.515,0,0,1,71.1-.424a4.08,4.08,0,0,1-1.584-1.6,4.826,4.826,0,0,1-.576-2.392A4.734,4.734,0,0,1,69.536-6.8a4.089,4.089,0,0,1,1.616-1.6,4.689,4.689,0,0,1,2.288-.56,4.689,4.689,0,0,1,2.288.56,4.089,4.089,0,0,1,1.616,1.6,4.734,4.734,0,0,1,.592,2.384,4.635,4.635,0,0,1-.608,2.384A4.21,4.21,0,0,1,75.672-.424,4.773,4.773,0,0,1,73.36.144Zm0-1.584a2.714,2.714,0,0,0,1.32-.336,2.56,2.56,0,0,0,1-1.008,3.241,3.241,0,0,0,.384-1.632A3.308,3.308,0,0,0,75.7-6.04a2.484,2.484,0,0,0-.976-1,2.669,2.669,0,0,0-1.312-.336,2.625,2.625,0,0,0-1.3.336,2.4,2.4,0,0,0-.952,1A3.432,3.432,0,0,0,70.8-4.416a3.093,3.093,0,0,0,.728,2.2A2.406,2.406,0,0,0,73.36-1.44Zm5.776-2.976a5,5,0,0,1,.552-2.392A3.926,3.926,0,0,1,81.216-8.4a4.42,4.42,0,0,1,2.24-.56A4.4,4.4,0,0,1,86.1-8.2,3.741,3.741,0,0,1,87.52-6.032H85.552a2.081,2.081,0,0,0-.768-1.024,2.268,2.268,0,0,0-1.328-.368,2.208,2.208,0,0,0-1.784.792,3.351,3.351,0,0,0-.664,2.216,3.384,3.384,0,0,0,.664,2.224,2.2,2.2,0,0,0,1.784.8,2.024,2.024,0,0,0,2.1-1.392H87.52A3.94,3.94,0,0,1,86.08-.648a4.25,4.25,0,0,1-2.624.792,4.371,4.371,0,0,1-2.24-.568,3.981,3.981,0,0,1-1.528-1.6A5,5,0,0,1,79.136-4.416Zm13.7.016L96.9,0H94.432L91.168-3.792V0H89.344V-11.84h1.824v6.88l3.2-3.856H96.9Z" transform="translate(429 109.44)" fill="url(#linear-gradient-10)"/>
          </g>
          <g transform="matrix(1, 0, 0, 1, -90, 188.56)" filter="url(#Path_1172-2)">
            <path id="Path_1172-4" data-name="Path 1172" d="M6.272.112A5.76,5.76,0,0,1,3.416-.616,5.394,5.394,0,0,1,1.352-2.648a5.722,5.722,0,0,1-.76-2.936,5.679,5.679,0,0,1,.76-2.928,5.411,5.411,0,0,1,2.064-2.024,5.76,5.76,0,0,1,2.856-.728,5.792,5.792,0,0,1,2.872.728A5.354,5.354,0,0,1,11.2-8.512a5.726,5.726,0,0,1,.752,2.928A5.77,5.77,0,0,1,11.2-2.648,5.337,5.337,0,0,1,9.144-.616,5.792,5.792,0,0,1,6.272.112Zm0-1.584a3.833,3.833,0,0,0,1.968-.5,3.494,3.494,0,0,0,1.352-1.44,4.624,4.624,0,0,0,.488-2.168,4.575,4.575,0,0,0-.488-2.16A3.452,3.452,0,0,0,8.24-9.168a3.881,3.881,0,0,0-1.968-.5,3.881,3.881,0,0,0-1.968.5A3.452,3.452,0,0,0,2.952-7.744a4.575,4.575,0,0,0-.488,2.16,4.624,4.624,0,0,0,.488,2.168A3.494,3.494,0,0,0,4.3-1.976,3.833,3.833,0,0,0,6.272-1.472ZM21.728-8.816V0H19.9V-1.04a2.952,2.952,0,0,1-1.128.856A3.577,3.577,0,0,1,17.3.128,3.953,3.953,0,0,1,15.432-.3a3.121,3.121,0,0,1-1.3-1.28,4.152,4.152,0,0,1-.472-2.048V-8.816h1.808V-3.9a2.559,2.559,0,0,0,.592,1.816,2.107,2.107,0,0,0,1.616.632A2.133,2.133,0,0,0,19.3-2.088,2.537,2.537,0,0,0,19.9-3.9V-8.816Zm4.528,1.488v4.88a.937.937,0,0,0,.232.712,1.154,1.154,0,0,0,.792.216H28.4V0H26.96a2.776,2.776,0,0,1-1.888-.576,2.374,2.374,0,0,1-.656-1.872v-4.88h-1.04V-8.816h1.04v-2.192h1.84v2.192H28.4v1.488ZM38.064.144a4.515,4.515,0,0,1-2.256-.568,4.08,4.08,0,0,1-1.584-1.6,4.826,4.826,0,0,1-.576-2.392A4.734,4.734,0,0,1,34.24-6.8a4.089,4.089,0,0,1,1.616-1.6,4.689,4.689,0,0,1,2.288-.56,4.689,4.689,0,0,1,2.288.56,4.089,4.089,0,0,1,1.616,1.6,4.734,4.734,0,0,1,.592,2.384,4.636,4.636,0,0,1-.608,2.384A4.21,4.21,0,0,1,40.376-.424,4.773,4.773,0,0,1,38.064.144Zm0-1.584a2.714,2.714,0,0,0,1.32-.336,2.56,2.56,0,0,0,1-1.008,3.241,3.241,0,0,0,.384-1.632A3.308,3.308,0,0,0,40.4-6.04a2.484,2.484,0,0,0-.976-1,2.669,2.669,0,0,0-1.312-.336,2.625,2.625,0,0,0-1.3.336,2.4,2.4,0,0,0-.952,1A3.432,3.432,0,0,0,35.5-4.416a3.093,3.093,0,0,0,.728,2.2A2.406,2.406,0,0,0,38.064-1.44Zm10.08-5.888H46.512V0h-1.84V-7.328h-1.04V-8.816h1.04V-9.44a2.774,2.774,0,0,1,.808-2.216,3.831,3.831,0,0,1,2.536-.7v1.52a1.712,1.712,0,0,0-1.168.312,1.43,1.43,0,0,0-.336,1.08v.624h1.632Zm9.44,7.44A4.98,4.98,0,0,1,55.568-.28,3.308,3.308,0,0,1,54.16-1.392a2.824,2.824,0,0,1-.512-1.68H55.6a1.762,1.762,0,0,0,.568,1.184,2.013,2.013,0,0,0,1.416.464,2.181,2.181,0,0,0,1.472-.456,1.482,1.482,0,0,0,.528-1.176,1.284,1.284,0,0,0-.328-.912,2.194,2.194,0,0,0-.816-.544,12.306,12.306,0,0,0-1.352-.416,12.667,12.667,0,0,1-1.768-.584,2.922,2.922,0,0,1-1.16-.92A2.659,2.659,0,0,1,53.68-8.1a2.958,2.958,0,0,1,.48-1.68,3.066,3.066,0,0,1,1.344-1.1,4.883,4.883,0,0,1,2-.384,4.168,4.168,0,0,1,2.648.808A2.981,2.981,0,0,1,61.3-8.24H59.28A1.461,1.461,0,0,0,58.7-9.28a2.129,2.129,0,0,0-1.392-.432,1.975,1.975,0,0,0-1.28.4,1.394,1.394,0,0,0-.5,1.152,1.169,1.169,0,0,0,.312.84,2.2,2.2,0,0,0,.792.52,12.3,12.3,0,0,0,1.312.416,13.7,13.7,0,0,1,1.8.608,3,3,0,0,1,1.184.936,2.69,2.69,0,0,1,.488,1.688,3.035,3.035,0,0,1-.456,1.6A3.29,3.29,0,0,1,59.64-.344,4.379,4.379,0,0,1,57.584.112Zm8.128-7.44v4.88a.937.937,0,0,0,.232.712,1.154,1.154,0,0,0,.792.216h1.12V0h-1.44a2.776,2.776,0,0,1-1.888-.576,2.374,2.374,0,0,1-.656-1.872v-4.88h-1.04V-8.816h1.04v-2.192h1.84v2.192h2.144v1.488ZM73.36.144A4.515,4.515,0,0,1,71.1-.424a4.08,4.08,0,0,1-1.584-1.6,4.826,4.826,0,0,1-.576-2.392A4.734,4.734,0,0,1,69.536-6.8a4.089,4.089,0,0,1,1.616-1.6,4.689,4.689,0,0,1,2.288-.56,4.689,4.689,0,0,1,2.288.56,4.089,4.089,0,0,1,1.616,1.6,4.734,4.734,0,0,1,.592,2.384,4.635,4.635,0,0,1-.608,2.384A4.21,4.21,0,0,1,75.672-.424,4.773,4.773,0,0,1,73.36.144Zm0-1.584a2.714,2.714,0,0,0,1.32-.336,2.56,2.56,0,0,0,1-1.008,3.241,3.241,0,0,0,.384-1.632A3.308,3.308,0,0,0,75.7-6.04a2.484,2.484,0,0,0-.976-1,2.669,2.669,0,0,0-1.312-.336,2.625,2.625,0,0,0-1.3.336,2.4,2.4,0,0,0-.952,1A3.432,3.432,0,0,0,70.8-4.416a3.093,3.093,0,0,0,.728,2.2A2.406,2.406,0,0,0,73.36-1.44Zm5.776-2.976a5,5,0,0,1,.552-2.392A3.926,3.926,0,0,1,81.216-8.4a4.42,4.42,0,0,1,2.24-.56A4.4,4.4,0,0,1,86.1-8.2,3.741,3.741,0,0,1,87.52-6.032H85.552a2.081,2.081,0,0,0-.768-1.024,2.268,2.268,0,0,0-1.328-.368,2.208,2.208,0,0,0-1.784.792,3.351,3.351,0,0,0-.664,2.216,3.384,3.384,0,0,0,.664,2.224,2.2,2.2,0,0,0,1.784.8,2.024,2.024,0,0,0,2.1-1.392H87.52A3.94,3.94,0,0,1,86.08-.648a4.25,4.25,0,0,1-2.624.792,4.371,4.371,0,0,1-2.24-.568,3.981,3.981,0,0,1-1.528-1.6A5,5,0,0,1,79.136-4.416Zm13.7.016L96.9,0H94.432L91.168-3.792V0H89.344V-11.84h1.824v6.88l3.2-3.856H96.9Z" transform="translate(429 109.44)" fill="#fff"/>
          </g>
        </g>
        <g transform="matrix(1, 0, 0, 1, -90, 188.56)" filter="url(#Path_1173)">
          <path id="Path_1173-2" data-name="Path 1173" d="M19.314-23.717,9.028,0H4.773l10.4-23.273H1.48v-3.589H19.314Z" transform="translate(429 166.44)" fill="url(#linear-gradient-9)"/>
        </g>
        <g data-type="innerShadowGroup">
          <g transform="matrix(1, 0, 0, 1, -90, 188.56)" filter="url(#Path_1174)">
            <path id="Path_1174-3" data-name="Path 1174" d="M19.314-23.717,9.028,0H4.773l10.4-23.273H1.48v-3.589H19.314Z" transform="translate(429 166.44)" fill="url(#linear-gradient-10)"/>
          </g>
          <g transform="matrix(1, 0, 0, 1, -90, 188.56)" filter="url(#Path_1174-2)">
            <path id="Path_1174-4" data-name="Path 1174" d="M19.314-23.717,9.028,0H4.773l10.4-23.273H1.48v-3.589H19.314Z" transform="translate(429 166.44)" fill="#fff"/>
          </g>
        </g>
        <g id="Group_1774" data-name="Group 1774">
          <g transform="matrix(1, 0, 0, 1, -90, 188.56)" filter="url(#Path_1169)">
            <path id="Path_1169-2" data-name="Path 1169" d="M-1033.073,1005.8a4.2,4.2,0,0,1,4.18-4.2,4.205,4.205,0,0,1,4.2,4.2,4.2,4.2,0,0,1-4.2,4.2A4.2,4.2,0,0,1-1033.073,1005.8Zm-21,0a4.2,4.2,0,0,1,4.18-4.2,4.206,4.206,0,0,1,4.2,4.2,4.205,4.205,0,0,1-4.2,4.2A4.2,4.2,0,0,1-1054.077,1005.8Zm29.383-6.3h-25.2a4.206,4.206,0,0,1-4.2-4.2,4.073,4.073,0,0,1,.525-2.016l2.836-5.146-7.562-15.942h-4.2v-4.2h6.869l1.975,4.2h15.683c-.017.281-.026.571-.026.863a14.511,14.511,0,0,0,10.764,14.014l-1.028,1.863a4.184,4.184,0,0,1-3.676,2.164h-15.648l-1.89,3.424-.063.252a.52.52,0,0,0,.525.525h24.323v4.2h0Zm-7.645-17.6a12.42,12.42,0,0,1-3.661-8.839,12.419,12.419,0,0,1,3.661-8.839,12.419,12.419,0,0,1,8.839-3.66,12.418,12.418,0,0,1,8.839,3.66,12.42,12.42,0,0,1,3.661,8.839,12.42,12.42,0,0,1-3.661,8.839,12.419,12.419,0,0,1-8.839,3.661A12.42,12.42,0,0,1-1032.339,981.895Zm7.814-3.636a1.309,1.309,0,0,0-.376.956,1.284,1.284,0,0,0,.366.931,1.385,1.385,0,0,0,1.035.374,1.389,1.389,0,0,0,1.036-.374,1.287,1.287,0,0,0,.365-.931,1.31,1.31,0,0,0-.375-.956,1.385,1.385,0,0,0-1.026-.38A1.383,1.383,0,0,0-1024.525,978.259Zm-.071-2.227h2.122l.244-10.438h-2.6Z" transform="translate(1491.5 -931.56)" fill="url(#linear-gradient-9)"/>
          </g>
          <g data-type="innerShadowGroup">
            <g transform="matrix(1, 0, 0, 1, -90, 188.56)" filter="url(#Path_1170)">
              <path id="Path_1170-3" data-name="Path 1170" d="M-1033.073,1005.8a4.2,4.2,0,0,1,4.18-4.2,4.205,4.205,0,0,1,4.2,4.2,4.2,4.2,0,0,1-4.2,4.2A4.2,4.2,0,0,1-1033.073,1005.8Zm-21,0a4.2,4.2,0,0,1,4.18-4.2,4.206,4.206,0,0,1,4.2,4.2,4.205,4.205,0,0,1-4.2,4.2A4.2,4.2,0,0,1-1054.077,1005.8Zm29.383-6.3h-25.2a4.206,4.206,0,0,1-4.2-4.2,4.073,4.073,0,0,1,.525-2.016l2.836-5.146-7.562-15.942h-4.2v-4.2h6.869l1.975,4.2h15.683c-.017.281-.026.571-.026.863a14.511,14.511,0,0,0,10.764,14.014l-1.028,1.863a4.184,4.184,0,0,1-3.676,2.164h-15.648l-1.89,3.424-.063.252a.52.52,0,0,0,.525.525h24.323v4.2h0Zm-7.645-17.6a12.42,12.42,0,0,1-3.661-8.839,12.419,12.419,0,0,1,3.661-8.839,12.419,12.419,0,0,1,8.839-3.66,12.418,12.418,0,0,1,8.839,3.66,12.42,12.42,0,0,1,3.661,8.839,12.42,12.42,0,0,1-3.661,8.839,12.419,12.419,0,0,1-8.839,3.661A12.42,12.42,0,0,1-1032.339,981.895Zm7.814-3.636a1.309,1.309,0,0,0-.376.956,1.284,1.284,0,0,0,.366.931,1.385,1.385,0,0,0,1.035.374,1.389,1.389,0,0,0,1.036-.374,1.287,1.287,0,0,0,.365-.931,1.31,1.31,0,0,0-.375-.956,1.385,1.385,0,0,0-1.026-.38A1.383,1.383,0,0,0-1024.525,978.259Zm-.071-2.227h2.122l.244-10.438h-2.6Z" transform="translate(1491.5 -931.56)" fill="url(#linear-gradient-10)"/>
            </g>
            <g transform="matrix(1, 0, 0, 1, -90, 188.56)" filter="url(#Path_1170-2)">
              <path id="Path_1170-4" data-name="Path 1170" d="M-1033.073,1005.8a4.2,4.2,0,0,1,4.18-4.2,4.205,4.205,0,0,1,4.2,4.2,4.2,4.2,0,0,1-4.2,4.2A4.2,4.2,0,0,1-1033.073,1005.8Zm-21,0a4.2,4.2,0,0,1,4.18-4.2,4.206,4.206,0,0,1,4.2,4.2,4.205,4.205,0,0,1-4.2,4.2A4.2,4.2,0,0,1-1054.077,1005.8Zm29.383-6.3h-25.2a4.206,4.206,0,0,1-4.2-4.2,4.073,4.073,0,0,1,.525-2.016l2.836-5.146-7.562-15.942h-4.2v-4.2h6.869l1.975,4.2h15.683c-.017.281-.026.571-.026.863a14.511,14.511,0,0,0,10.764,14.014l-1.028,1.863a4.184,4.184,0,0,1-3.676,2.164h-15.648l-1.89,3.424-.063.252a.52.52,0,0,0,.525.525h24.323v4.2h0Zm-7.645-17.6a12.42,12.42,0,0,1-3.661-8.839,12.419,12.419,0,0,1,3.661-8.839,12.419,12.419,0,0,1,8.839-3.66,12.418,12.418,0,0,1,8.839,3.66,12.42,12.42,0,0,1,3.661,8.839,12.42,12.42,0,0,1-3.661,8.839,12.419,12.419,0,0,1-8.839,3.661A12.42,12.42,0,0,1-1032.339,981.895Zm7.814-3.636a1.309,1.309,0,0,0-.376.956,1.284,1.284,0,0,0,.366.931,1.385,1.385,0,0,0,1.035.374,1.389,1.389,0,0,0,1.036-.374,1.287,1.287,0,0,0,.365-.931,1.31,1.31,0,0,0-.375-.956,1.385,1.385,0,0,0-1.026-.38A1.383,1.383,0,0,0-1024.525,978.259Zm-.071-2.227h2.122l.244-10.438h-2.6Z" transform="translate(1491.5 -931.56)" fill="#fff"/>
            </g>
          </g>
        </g>
      </g>
    </g>
    <g id="Group_1619" data-name="Group 1619" transform="translate(218 4.064)">
      <g id="redCard" transform="translate(324 167.936)" clip-path="url(#clip-path)">
        <rect id="Rectangle_7964" data-name="Rectangle 7964" width="345" height="212" rx="10" transform="translate(-2.5 15.064)" fill="url(#linear-gradient-15)"/>
        <g id="Group_1652" data-name="Group 1652" transform="translate(-352 -48)">
          <g id="Group_1651" data-name="Group 1651" transform="translate(50 -120)" opacity="0.53">
            <path id="Path_1132" data-name="Path 1132" d="M104.123,20.721l.845,150.745s.827.437,0,.669C97.719,174.171,95.168,174,87,174A87.016,87.016,0,0,1,38.109,15.012c.1-.072,3.15,0,3.15,0l55-.051Z" transform="translate(542 168)" fill="url(#linear-gradient-4)"/>
            <path id="Path_1133" data-name="Path 1133" d="M99.393,20.022S113.458-8.8,104.425,32.243C95.375,73.366,85.055,190,85.055,190s.769,5.266-.7,5.065A97.936,97.936,0,0,1,0,98,99.931,99.931,0,0,1,47.176,13.611c1.431-.886,1.778,1.374,3.4.418C62.984,6.733,99.393,20.022,99.393,20.022Z" transform="translate(654.244 287.447) rotate(83)" fill="url(#linear-gradient-4)"/>
          </g>
        </g>
      </g>
      <g id="Group_1656" data-name="Group 1656" transform="translate(8 -6.064)">
        <g id="Group_1773" data-name="Group 1773">
          <g transform="matrix(1, 0, 0, 1, 316, 187)" filter="url(#ic_shopping_cart_24px)">
            <path id="ic_shopping_cart_24px-4" data-name="ic_shopping_cart_24px" d="M13.6,35.606a4.2,4.2,0,1,0,4.2,4.2A4.2,4.2,0,0,0,13.6,35.606ZM1,2V6.2H5.2l7.561,15.942L9.927,27.289A4.061,4.061,0,0,0,9.4,29.305a4.213,4.213,0,0,0,4.2,4.2h25.2v-4.2H14.485a.52.52,0,0,1-.525-.525l.063-.252,1.89-3.424H31.561a4.181,4.181,0,0,0,3.676-2.163L42.756,9.309A2.052,2.052,0,0,0,43.008,8.3a2.107,2.107,0,0,0-2.1-2.1H9.843L7.868,2H1ZM34.606,35.606a4.2,4.2,0,1,0,4.2,4.2A4.2,4.2,0,0,0,34.606,35.606Z" transform="translate(22 35.99)" fill="url(#linear-gradient-9)"/>
          </g>
          <g data-type="innerShadowGroup">
            <g transform="matrix(1, 0, 0, 1, 316, 187)" filter="url(#ic_shopping_cart_24px-2)">
              <path id="ic_shopping_cart_24px-5" data-name="ic_shopping_cart_24px" d="M13.6,35.606a4.2,4.2,0,1,0,4.2,4.2A4.2,4.2,0,0,0,13.6,35.606ZM1,2V6.2H5.2l7.561,15.942L9.927,27.289A4.061,4.061,0,0,0,9.4,29.305a4.213,4.213,0,0,0,4.2,4.2h25.2v-4.2H14.485a.52.52,0,0,1-.525-.525l.063-.252,1.89-3.424H31.561a4.181,4.181,0,0,0,3.676-2.163L42.756,9.309A2.052,2.052,0,0,0,43.008,8.3a2.107,2.107,0,0,0-2.1-2.1H9.843L7.868,2H1ZM34.606,35.606a4.2,4.2,0,1,0,4.2,4.2A4.2,4.2,0,0,0,34.606,35.606Z" transform="translate(22 35.99)" fill="url(#linear-gradient-10)"/>
            </g>
            <g transform="matrix(1, 0, 0, 1, 316, 187)" filter="url(#ic_shopping_cart_24px-3)">
              <path id="ic_shopping_cart_24px-6" data-name="ic_shopping_cart_24px" d="M13.6,35.606a4.2,4.2,0,1,0,4.2,4.2A4.2,4.2,0,0,0,13.6,35.606ZM1,2V6.2H5.2l7.561,15.942L9.927,27.289A4.061,4.061,0,0,0,9.4,29.305a4.213,4.213,0,0,0,4.2,4.2h25.2v-4.2H14.485a.52.52,0,0,1-.525-.525l.063-.252,1.89-3.424H31.561a4.181,4.181,0,0,0,3.676-2.163L42.756,9.309A2.052,2.052,0,0,0,43.008,8.3a2.107,2.107,0,0,0-2.1-2.1H9.843L7.868,2H1ZM34.606,35.606a4.2,4.2,0,1,0,4.2,4.2A4.2,4.2,0,0,0,34.606,35.606Z" transform="translate(22 35.99)" fill="#fff"/>
            </g>
          </g>
        </g>
        <g transform="matrix(1, 0, 0, 1, 316, 187)" filter="url(#Path_1165)">
          <path id="Path_1165-2" data-name="Path 1165" d="M8.976-7.808a3.358,3.358,0,0,1-.4,1.6A3,3,0,0,1,7.3-4.984a4.751,4.751,0,0,1-2.256.472H3.024V0H1.2V-11.12H5.04a4.848,4.848,0,0,1,2.168.44A3.059,3.059,0,0,1,8.536-9.488,3.265,3.265,0,0,1,8.976-7.808ZM5.04-6a2.224,2.224,0,0,0,1.552-.472A1.726,1.726,0,0,0,7.1-7.808q0-1.824-2.064-1.824H3.024V-6ZM18.8-4.624a5.7,5.7,0,0,1-.064.9H12a2.446,2.446,0,0,0,.784,1.7,2.475,2.475,0,0,0,1.728.64,2.134,2.134,0,0,0,2.08-1.232H18.56A3.971,3.971,0,0,1,17.112-.632a4.249,4.249,0,0,1-2.6.776,4.5,4.5,0,0,1-2.264-.568,4.041,4.041,0,0,1-1.568-1.6,4.881,4.881,0,0,1-.568-2.392,5,5,0,0,1,.552-2.392A3.882,3.882,0,0,1,12.216-8.4a4.619,4.619,0,0,1,2.3-.56,4.49,4.49,0,0,1,2.224.544,3.844,3.844,0,0,1,1.52,1.528A4.6,4.6,0,0,1,18.8-4.624ZM16.9-5.2a2.076,2.076,0,0,0-.72-1.616,2.574,2.574,0,0,0-1.744-.608,2.343,2.343,0,0,0-1.616.6,2.507,2.507,0,0,0-.8,1.624ZM25.04-8.96a3.953,3.953,0,0,1,1.864.432,3.072,3.072,0,0,1,1.288,1.28A4.211,4.211,0,0,1,28.656-5.2V0H26.848V-4.928a2.559,2.559,0,0,0-.592-1.816,2.107,2.107,0,0,0-1.616-.632,2.133,2.133,0,0,0-1.624.632,2.537,2.537,0,0,0-.6,1.816V0H20.592V-8.816h1.824v1.008a3.019,3.019,0,0,1,1.144-.848A3.657,3.657,0,0,1,25.04-8.96Zm5.328,4.512A4.879,4.879,0,0,1,30.92-6.8a4.046,4.046,0,0,1,1.5-1.592,4.059,4.059,0,0,1,2.12-.568,4.134,4.134,0,0,1,1.7.376,3.487,3.487,0,0,1,1.336,1V-11.84h1.84V0h-1.84V-1.328a3.415,3.415,0,0,1-1.24,1.056,3.847,3.847,0,0,1-1.816.416,3.945,3.945,0,0,1-2.1-.584,4.122,4.122,0,0,1-1.5-1.632A5.021,5.021,0,0,1,30.368-4.448Zm7.216.032A3.192,3.192,0,0,0,37.208-6a2.639,2.639,0,0,0-.984-1.024,2.574,2.574,0,0,0-1.312-.352,2.621,2.621,0,0,0-1.312.344,2.594,2.594,0,0,0-.984,1.008,3.147,3.147,0,0,0-.376,1.576,3.284,3.284,0,0,0,.376,1.6A2.653,2.653,0,0,0,33.608-1.8a2.544,2.544,0,0,0,1.3.36,2.574,2.574,0,0,0,1.312-.352,2.626,2.626,0,0,0,.984-1.032A3.238,3.238,0,0,0,37.584-4.416Zm5.168-5.568a1.13,1.13,0,0,1-.832-.336,1.13,1.13,0,0,1-.336-.832,1.13,1.13,0,0,1,.336-.832,1.13,1.13,0,0,1,.832-.336,1.111,1.111,0,0,1,.816.336,1.13,1.13,0,0,1,.336.832,1.13,1.13,0,0,1-.336.832A1.111,1.111,0,0,1,42.752-9.984Zm.9,1.168V0H41.824V-8.816ZM50.5-8.96a3.953,3.953,0,0,1,1.864.432,3.072,3.072,0,0,1,1.288,1.28A4.211,4.211,0,0,1,54.112-5.2V0H52.3V-4.928a2.559,2.559,0,0,0-.592-1.816A2.107,2.107,0,0,0,50.1-7.376a2.133,2.133,0,0,0-1.624.632,2.537,2.537,0,0,0-.6,1.816V0H46.048V-8.816h1.824v1.008a3.019,3.019,0,0,1,1.144-.848A3.657,3.657,0,0,1,50.5-8.96Zm9.488,0a3.909,3.909,0,0,1,1.816.408,3.488,3.488,0,0,1,1.24,1.016v-1.28h1.84V.144a4.5,4.5,0,0,1-.512,2.168,3.7,3.7,0,0,1-1.48,1.5,4.647,4.647,0,0,1-2.312.544,5.017,5.017,0,0,1-2.976-.84,3.1,3.1,0,0,1-1.344-2.28h1.808a1.963,1.963,0,0,0,.888,1.112,3.007,3.007,0,0,0,1.624.424A2.428,2.428,0,0,0,62.36,2.1,2.625,2.625,0,0,0,63.04.144V-1.328A3.719,3.719,0,0,1,61.784-.28a3.754,3.754,0,0,1-1.8.424,3.945,3.945,0,0,1-2.1-.584,4.122,4.122,0,0,1-1.5-1.632,5.021,5.021,0,0,1-.552-2.376A4.879,4.879,0,0,1,56.376-6.8a4.046,4.046,0,0,1,1.5-1.592A4.029,4.029,0,0,1,59.984-8.96ZM63.04-4.416A3.192,3.192,0,0,0,62.664-6a2.639,2.639,0,0,0-.984-1.024,2.574,2.574,0,0,0-1.312-.352,2.62,2.62,0,0,0-1.312.344,2.594,2.594,0,0,0-.984,1.008A3.147,3.147,0,0,0,57.7-4.448a3.284,3.284,0,0,0,.376,1.6A2.653,2.653,0,0,0,59.064-1.8a2.544,2.544,0,0,0,1.3.36,2.574,2.574,0,0,0,1.312-.352,2.626,2.626,0,0,0,.984-1.032A3.238,3.238,0,0,0,63.04-4.416ZM76.512.112a5.76,5.76,0,0,1-2.856-.728,5.394,5.394,0,0,1-2.064-2.032,5.722,5.722,0,0,1-.76-2.936,5.679,5.679,0,0,1,.76-2.928,5.411,5.411,0,0,1,2.064-2.024,5.76,5.76,0,0,1,2.856-.728,5.792,5.792,0,0,1,2.872.728A5.354,5.354,0,0,1,81.44-8.512a5.726,5.726,0,0,1,.752,2.928,5.77,5.77,0,0,1-.752,2.936A5.337,5.337,0,0,1,79.384-.616,5.792,5.792,0,0,1,76.512.112Zm0-1.584a3.833,3.833,0,0,0,1.968-.5,3.494,3.494,0,0,0,1.352-1.44,4.624,4.624,0,0,0,.488-2.168,4.575,4.575,0,0,0-.488-2.16A3.452,3.452,0,0,0,78.48-9.168a3.881,3.881,0,0,0-1.968-.5,3.881,3.881,0,0,0-1.968.5,3.452,3.452,0,0,0-1.352,1.424,4.575,4.575,0,0,0-.488,2.16,4.624,4.624,0,0,0,.488,2.168,3.494,3.494,0,0,0,1.352,1.44A3.833,3.833,0,0,0,76.512-1.472Zm9.3-6.064a2.865,2.865,0,0,1,1.064-1.048,3.147,3.147,0,0,1,1.576-.376v1.888h-.464a2.221,2.221,0,0,0-1.624.544,2.6,2.6,0,0,0-.552,1.888V0H83.984V-8.816h1.824ZM89.52-4.448A4.879,4.879,0,0,1,90.072-6.8a4.046,4.046,0,0,1,1.5-1.592A4.059,4.059,0,0,1,93.7-8.96a4.134,4.134,0,0,1,1.7.376,3.487,3.487,0,0,1,1.336,1V-11.84h1.84V0h-1.84V-1.328A3.415,3.415,0,0,1,95.5-.272,3.847,3.847,0,0,1,93.68.144a3.945,3.945,0,0,1-2.1-.584,4.122,4.122,0,0,1-1.5-1.632A5.021,5.021,0,0,1,89.52-4.448Zm7.216.032A3.192,3.192,0,0,0,96.36-6a2.639,2.639,0,0,0-.984-1.024,2.574,2.574,0,0,0-1.312-.352,2.621,2.621,0,0,0-1.312.344,2.594,2.594,0,0,0-.984,1.008,3.147,3.147,0,0,0-.376,1.576,3.284,3.284,0,0,0,.376,1.6A2.653,2.653,0,0,0,92.76-1.8a2.544,2.544,0,0,0,1.3.36,2.574,2.574,0,0,0,1.312-.352,2.626,2.626,0,0,0,.984-1.032A3.238,3.238,0,0,0,96.736-4.416Zm12.32-.208a5.7,5.7,0,0,1-.064.9h-6.736a2.446,2.446,0,0,0,.784,1.7,2.475,2.475,0,0,0,1.728.64,2.134,2.134,0,0,0,2.08-1.232h1.968a3.971,3.971,0,0,1-1.448,1.992,4.249,4.249,0,0,1-2.6.776A4.5,4.5,0,0,1,102.5-.424a4.041,4.041,0,0,1-1.568-1.6,4.881,4.881,0,0,1-.568-2.392,5,5,0,0,1,.552-2.392A3.882,3.882,0,0,1,102.472-8.4a4.619,4.619,0,0,1,2.3-.56,4.49,4.49,0,0,1,2.224.544,3.844,3.844,0,0,1,1.52,1.528A4.6,4.6,0,0,1,109.056-4.624Zm-1.9-.576a2.076,2.076,0,0,0-.72-1.616,2.574,2.574,0,0,0-1.744-.608,2.343,2.343,0,0,0-1.616.6,2.507,2.507,0,0,0-.8,1.624Zm5.52-2.336a2.865,2.865,0,0,1,1.064-1.048,3.147,3.147,0,0,1,1.576-.376v1.888h-.464a2.221,2.221,0,0,0-1.624.544,2.6,2.6,0,0,0-.552,1.888V0h-1.824V-8.816h1.824Zm7.52,7.68a4.442,4.442,0,0,1-1.864-.376,3.274,3.274,0,0,1-1.3-1.024,2.552,2.552,0,0,1-.512-1.448H118.4a1.287,1.287,0,0,0,.536.936,1.946,1.946,0,0,0,1.224.376,2.062,2.062,0,0,0,1.192-.3.893.893,0,0,0,.424-.76.78.78,0,0,0-.472-.736,8.847,8.847,0,0,0-1.5-.528,14.439,14.439,0,0,1-1.616-.528,2.833,2.833,0,0,1-1.08-.784,2.055,2.055,0,0,1-.456-1.392,2.171,2.171,0,0,1,.416-1.288,2.77,2.77,0,0,1,1.192-.92,4.454,4.454,0,0,1,1.784-.336,3.684,3.684,0,0,1,2.424.76,2.729,2.729,0,0,1,.984,2.072h-1.824a1.3,1.3,0,0,0-.48-.944,1.8,1.8,0,0,0-1.168-.352,1.9,1.9,0,0,0-1.1.272.842.842,0,0,0-.384.72.779.779,0,0,0,.256.592,1.824,1.824,0,0,0,.624.376q.368.136,1.088.344a11.836,11.836,0,0,1,1.576.52,2.934,2.934,0,0,1,1.064.776,2.053,2.053,0,0,1,.464,1.36,2.281,2.281,0,0,1-.416,1.344,2.758,2.758,0,0,1-1.176.928A4.382,4.382,0,0,1,120.192.144Z" transform="translate(23 111)" fill="url(#linear-gradient-9)"/>
        </g>
        <g data-type="innerShadowGroup">
          <g transform="matrix(1, 0, 0, 1, 316, 187)" filter="url(#Path_1166)">
            <path id="Path_1166-3" data-name="Path 1166" d="M8.976-7.808a3.358,3.358,0,0,1-.4,1.6A3,3,0,0,1,7.3-4.984a4.751,4.751,0,0,1-2.256.472H3.024V0H1.2V-11.12H5.04a4.848,4.848,0,0,1,2.168.44A3.059,3.059,0,0,1,8.536-9.488,3.265,3.265,0,0,1,8.976-7.808ZM5.04-6a2.224,2.224,0,0,0,1.552-.472A1.726,1.726,0,0,0,7.1-7.808q0-1.824-2.064-1.824H3.024V-6ZM18.8-4.624a5.7,5.7,0,0,1-.064.9H12a2.446,2.446,0,0,0,.784,1.7,2.475,2.475,0,0,0,1.728.64,2.134,2.134,0,0,0,2.08-1.232H18.56A3.971,3.971,0,0,1,17.112-.632a4.249,4.249,0,0,1-2.6.776,4.5,4.5,0,0,1-2.264-.568,4.041,4.041,0,0,1-1.568-1.6,4.881,4.881,0,0,1-.568-2.392,5,5,0,0,1,.552-2.392A3.882,3.882,0,0,1,12.216-8.4a4.619,4.619,0,0,1,2.3-.56,4.49,4.49,0,0,1,2.224.544,3.844,3.844,0,0,1,1.52,1.528A4.6,4.6,0,0,1,18.8-4.624ZM16.9-5.2a2.076,2.076,0,0,0-.72-1.616,2.574,2.574,0,0,0-1.744-.608,2.343,2.343,0,0,0-1.616.6,2.507,2.507,0,0,0-.8,1.624ZM25.04-8.96a3.953,3.953,0,0,1,1.864.432,3.072,3.072,0,0,1,1.288,1.28A4.211,4.211,0,0,1,28.656-5.2V0H26.848V-4.928a2.559,2.559,0,0,0-.592-1.816,2.107,2.107,0,0,0-1.616-.632,2.133,2.133,0,0,0-1.624.632,2.537,2.537,0,0,0-.6,1.816V0H20.592V-8.816h1.824v1.008a3.019,3.019,0,0,1,1.144-.848A3.657,3.657,0,0,1,25.04-8.96Zm5.328,4.512A4.879,4.879,0,0,1,30.92-6.8a4.046,4.046,0,0,1,1.5-1.592,4.059,4.059,0,0,1,2.12-.568,4.134,4.134,0,0,1,1.7.376,3.487,3.487,0,0,1,1.336,1V-11.84h1.84V0h-1.84V-1.328a3.415,3.415,0,0,1-1.24,1.056,3.847,3.847,0,0,1-1.816.416,3.945,3.945,0,0,1-2.1-.584,4.122,4.122,0,0,1-1.5-1.632A5.021,5.021,0,0,1,30.368-4.448Zm7.216.032A3.192,3.192,0,0,0,37.208-6a2.639,2.639,0,0,0-.984-1.024,2.574,2.574,0,0,0-1.312-.352,2.621,2.621,0,0,0-1.312.344,2.594,2.594,0,0,0-.984,1.008,3.147,3.147,0,0,0-.376,1.576,3.284,3.284,0,0,0,.376,1.6A2.653,2.653,0,0,0,33.608-1.8a2.544,2.544,0,0,0,1.3.36,2.574,2.574,0,0,0,1.312-.352,2.626,2.626,0,0,0,.984-1.032A3.238,3.238,0,0,0,37.584-4.416Zm5.168-5.568a1.13,1.13,0,0,1-.832-.336,1.13,1.13,0,0,1-.336-.832,1.13,1.13,0,0,1,.336-.832,1.13,1.13,0,0,1,.832-.336,1.111,1.111,0,0,1,.816.336,1.13,1.13,0,0,1,.336.832,1.13,1.13,0,0,1-.336.832A1.111,1.111,0,0,1,42.752-9.984Zm.9,1.168V0H41.824V-8.816ZM50.5-8.96a3.953,3.953,0,0,1,1.864.432,3.072,3.072,0,0,1,1.288,1.28A4.211,4.211,0,0,1,54.112-5.2V0H52.3V-4.928a2.559,2.559,0,0,0-.592-1.816A2.107,2.107,0,0,0,50.1-7.376a2.133,2.133,0,0,0-1.624.632,2.537,2.537,0,0,0-.6,1.816V0H46.048V-8.816h1.824v1.008a3.019,3.019,0,0,1,1.144-.848A3.657,3.657,0,0,1,50.5-8.96Zm9.488,0a3.909,3.909,0,0,1,1.816.408,3.488,3.488,0,0,1,1.24,1.016v-1.28h1.84V.144a4.5,4.5,0,0,1-.512,2.168,3.7,3.7,0,0,1-1.48,1.5,4.647,4.647,0,0,1-2.312.544,5.017,5.017,0,0,1-2.976-.84,3.1,3.1,0,0,1-1.344-2.28h1.808a1.963,1.963,0,0,0,.888,1.112,3.007,3.007,0,0,0,1.624.424A2.428,2.428,0,0,0,62.36,2.1,2.625,2.625,0,0,0,63.04.144V-1.328A3.719,3.719,0,0,1,61.784-.28a3.754,3.754,0,0,1-1.8.424,3.945,3.945,0,0,1-2.1-.584,4.122,4.122,0,0,1-1.5-1.632,5.021,5.021,0,0,1-.552-2.376A4.879,4.879,0,0,1,56.376-6.8a4.046,4.046,0,0,1,1.5-1.592A4.029,4.029,0,0,1,59.984-8.96ZM63.04-4.416A3.192,3.192,0,0,0,62.664-6a2.639,2.639,0,0,0-.984-1.024,2.574,2.574,0,0,0-1.312-.352,2.62,2.62,0,0,0-1.312.344,2.594,2.594,0,0,0-.984,1.008A3.147,3.147,0,0,0,57.7-4.448a3.284,3.284,0,0,0,.376,1.6A2.653,2.653,0,0,0,59.064-1.8a2.544,2.544,0,0,0,1.3.36,2.574,2.574,0,0,0,1.312-.352,2.626,2.626,0,0,0,.984-1.032A3.238,3.238,0,0,0,63.04-4.416ZM76.512.112a5.76,5.76,0,0,1-2.856-.728,5.394,5.394,0,0,1-2.064-2.032,5.722,5.722,0,0,1-.76-2.936,5.679,5.679,0,0,1,.76-2.928,5.411,5.411,0,0,1,2.064-2.024,5.76,5.76,0,0,1,2.856-.728,5.792,5.792,0,0,1,2.872.728A5.354,5.354,0,0,1,81.44-8.512a5.726,5.726,0,0,1,.752,2.928,5.77,5.77,0,0,1-.752,2.936A5.337,5.337,0,0,1,79.384-.616,5.792,5.792,0,0,1,76.512.112Zm0-1.584a3.833,3.833,0,0,0,1.968-.5,3.494,3.494,0,0,0,1.352-1.44,4.624,4.624,0,0,0,.488-2.168,4.575,4.575,0,0,0-.488-2.16A3.452,3.452,0,0,0,78.48-9.168a3.881,3.881,0,0,0-1.968-.5,3.881,3.881,0,0,0-1.968.5,3.452,3.452,0,0,0-1.352,1.424,4.575,4.575,0,0,0-.488,2.16,4.624,4.624,0,0,0,.488,2.168,3.494,3.494,0,0,0,1.352,1.44A3.833,3.833,0,0,0,76.512-1.472Zm9.3-6.064a2.865,2.865,0,0,1,1.064-1.048,3.147,3.147,0,0,1,1.576-.376v1.888h-.464a2.221,2.221,0,0,0-1.624.544,2.6,2.6,0,0,0-.552,1.888V0H83.984V-8.816h1.824ZM89.52-4.448A4.879,4.879,0,0,1,90.072-6.8a4.046,4.046,0,0,1,1.5-1.592A4.059,4.059,0,0,1,93.7-8.96a4.134,4.134,0,0,1,1.7.376,3.487,3.487,0,0,1,1.336,1V-11.84h1.84V0h-1.84V-1.328A3.415,3.415,0,0,1,95.5-.272,3.847,3.847,0,0,1,93.68.144a3.945,3.945,0,0,1-2.1-.584,4.122,4.122,0,0,1-1.5-1.632A5.021,5.021,0,0,1,89.52-4.448Zm7.216.032A3.192,3.192,0,0,0,96.36-6a2.639,2.639,0,0,0-.984-1.024,2.574,2.574,0,0,0-1.312-.352,2.621,2.621,0,0,0-1.312.344,2.594,2.594,0,0,0-.984,1.008,3.147,3.147,0,0,0-.376,1.576,3.284,3.284,0,0,0,.376,1.6A2.653,2.653,0,0,0,92.76-1.8a2.544,2.544,0,0,0,1.3.36,2.574,2.574,0,0,0,1.312-.352,2.626,2.626,0,0,0,.984-1.032A3.238,3.238,0,0,0,96.736-4.416Zm12.32-.208a5.7,5.7,0,0,1-.064.9h-6.736a2.446,2.446,0,0,0,.784,1.7,2.475,2.475,0,0,0,1.728.64,2.134,2.134,0,0,0,2.08-1.232h1.968a3.971,3.971,0,0,1-1.448,1.992,4.249,4.249,0,0,1-2.6.776A4.5,4.5,0,0,1,102.5-.424a4.041,4.041,0,0,1-1.568-1.6,4.881,4.881,0,0,1-.568-2.392,5,5,0,0,1,.552-2.392A3.882,3.882,0,0,1,102.472-8.4a4.619,4.619,0,0,1,2.3-.56,4.49,4.49,0,0,1,2.224.544,3.844,3.844,0,0,1,1.52,1.528A4.6,4.6,0,0,1,109.056-4.624Zm-1.9-.576a2.076,2.076,0,0,0-.72-1.616,2.574,2.574,0,0,0-1.744-.608,2.343,2.343,0,0,0-1.616.6,2.507,2.507,0,0,0-.8,1.624Zm5.52-2.336a2.865,2.865,0,0,1,1.064-1.048,3.147,3.147,0,0,1,1.576-.376v1.888h-.464a2.221,2.221,0,0,0-1.624.544,2.6,2.6,0,0,0-.552,1.888V0h-1.824V-8.816h1.824Zm7.52,7.68a4.442,4.442,0,0,1-1.864-.376,3.274,3.274,0,0,1-1.3-1.024,2.552,2.552,0,0,1-.512-1.448H118.4a1.287,1.287,0,0,0,.536.936,1.946,1.946,0,0,0,1.224.376,2.062,2.062,0,0,0,1.192-.3.893.893,0,0,0,.424-.76.78.78,0,0,0-.472-.736,8.847,8.847,0,0,0-1.5-.528,14.439,14.439,0,0,1-1.616-.528,2.833,2.833,0,0,1-1.08-.784,2.055,2.055,0,0,1-.456-1.392,2.171,2.171,0,0,1,.416-1.288,2.77,2.77,0,0,1,1.192-.92,4.454,4.454,0,0,1,1.784-.336,3.684,3.684,0,0,1,2.424.76,2.729,2.729,0,0,1,.984,2.072h-1.824a1.3,1.3,0,0,0-.48-.944,1.8,1.8,0,0,0-1.168-.352,1.9,1.9,0,0,0-1.1.272.842.842,0,0,0-.384.72.779.779,0,0,0,.256.592,1.824,1.824,0,0,0,.624.376q.368.136,1.088.344a11.836,11.836,0,0,1,1.576.52,2.934,2.934,0,0,1,1.064.776,2.053,2.053,0,0,1,.464,1.36,2.281,2.281,0,0,1-.416,1.344,2.758,2.758,0,0,1-1.176.928A4.382,4.382,0,0,1,120.192.144Z" transform="translate(23 111)" fill="url(#linear-gradient-21)"/>
          </g>
          <g transform="matrix(1, 0, 0, 1, 316, 187)" filter="url(#Path_1166-2)">
            <path id="Path_1166-4" data-name="Path 1166" d="M8.976-7.808a3.358,3.358,0,0,1-.4,1.6A3,3,0,0,1,7.3-4.984a4.751,4.751,0,0,1-2.256.472H3.024V0H1.2V-11.12H5.04a4.848,4.848,0,0,1,2.168.44A3.059,3.059,0,0,1,8.536-9.488,3.265,3.265,0,0,1,8.976-7.808ZM5.04-6a2.224,2.224,0,0,0,1.552-.472A1.726,1.726,0,0,0,7.1-7.808q0-1.824-2.064-1.824H3.024V-6ZM18.8-4.624a5.7,5.7,0,0,1-.064.9H12a2.446,2.446,0,0,0,.784,1.7,2.475,2.475,0,0,0,1.728.64,2.134,2.134,0,0,0,2.08-1.232H18.56A3.971,3.971,0,0,1,17.112-.632a4.249,4.249,0,0,1-2.6.776,4.5,4.5,0,0,1-2.264-.568,4.041,4.041,0,0,1-1.568-1.6,4.881,4.881,0,0,1-.568-2.392,5,5,0,0,1,.552-2.392A3.882,3.882,0,0,1,12.216-8.4a4.619,4.619,0,0,1,2.3-.56,4.49,4.49,0,0,1,2.224.544,3.844,3.844,0,0,1,1.52,1.528A4.6,4.6,0,0,1,18.8-4.624ZM16.9-5.2a2.076,2.076,0,0,0-.72-1.616,2.574,2.574,0,0,0-1.744-.608,2.343,2.343,0,0,0-1.616.6,2.507,2.507,0,0,0-.8,1.624ZM25.04-8.96a3.953,3.953,0,0,1,1.864.432,3.072,3.072,0,0,1,1.288,1.28A4.211,4.211,0,0,1,28.656-5.2V0H26.848V-4.928a2.559,2.559,0,0,0-.592-1.816,2.107,2.107,0,0,0-1.616-.632,2.133,2.133,0,0,0-1.624.632,2.537,2.537,0,0,0-.6,1.816V0H20.592V-8.816h1.824v1.008a3.019,3.019,0,0,1,1.144-.848A3.657,3.657,0,0,1,25.04-8.96Zm5.328,4.512A4.879,4.879,0,0,1,30.92-6.8a4.046,4.046,0,0,1,1.5-1.592,4.059,4.059,0,0,1,2.12-.568,4.134,4.134,0,0,1,1.7.376,3.487,3.487,0,0,1,1.336,1V-11.84h1.84V0h-1.84V-1.328a3.415,3.415,0,0,1-1.24,1.056,3.847,3.847,0,0,1-1.816.416,3.945,3.945,0,0,1-2.1-.584,4.122,4.122,0,0,1-1.5-1.632A5.021,5.021,0,0,1,30.368-4.448Zm7.216.032A3.192,3.192,0,0,0,37.208-6a2.639,2.639,0,0,0-.984-1.024,2.574,2.574,0,0,0-1.312-.352,2.621,2.621,0,0,0-1.312.344,2.594,2.594,0,0,0-.984,1.008,3.147,3.147,0,0,0-.376,1.576,3.284,3.284,0,0,0,.376,1.6A2.653,2.653,0,0,0,33.608-1.8a2.544,2.544,0,0,0,1.3.36,2.574,2.574,0,0,0,1.312-.352,2.626,2.626,0,0,0,.984-1.032A3.238,3.238,0,0,0,37.584-4.416Zm5.168-5.568a1.13,1.13,0,0,1-.832-.336,1.13,1.13,0,0,1-.336-.832,1.13,1.13,0,0,1,.336-.832,1.13,1.13,0,0,1,.832-.336,1.111,1.111,0,0,1,.816.336,1.13,1.13,0,0,1,.336.832,1.13,1.13,0,0,1-.336.832A1.111,1.111,0,0,1,42.752-9.984Zm.9,1.168V0H41.824V-8.816ZM50.5-8.96a3.953,3.953,0,0,1,1.864.432,3.072,3.072,0,0,1,1.288,1.28A4.211,4.211,0,0,1,54.112-5.2V0H52.3V-4.928a2.559,2.559,0,0,0-.592-1.816A2.107,2.107,0,0,0,50.1-7.376a2.133,2.133,0,0,0-1.624.632,2.537,2.537,0,0,0-.6,1.816V0H46.048V-8.816h1.824v1.008a3.019,3.019,0,0,1,1.144-.848A3.657,3.657,0,0,1,50.5-8.96Zm9.488,0a3.909,3.909,0,0,1,1.816.408,3.488,3.488,0,0,1,1.24,1.016v-1.28h1.84V.144a4.5,4.5,0,0,1-.512,2.168,3.7,3.7,0,0,1-1.48,1.5,4.647,4.647,0,0,1-2.312.544,5.017,5.017,0,0,1-2.976-.84,3.1,3.1,0,0,1-1.344-2.28h1.808a1.963,1.963,0,0,0,.888,1.112,3.007,3.007,0,0,0,1.624.424A2.428,2.428,0,0,0,62.36,2.1,2.625,2.625,0,0,0,63.04.144V-1.328A3.719,3.719,0,0,1,61.784-.28a3.754,3.754,0,0,1-1.8.424,3.945,3.945,0,0,1-2.1-.584,4.122,4.122,0,0,1-1.5-1.632,5.021,5.021,0,0,1-.552-2.376A4.879,4.879,0,0,1,56.376-6.8a4.046,4.046,0,0,1,1.5-1.592A4.029,4.029,0,0,1,59.984-8.96ZM63.04-4.416A3.192,3.192,0,0,0,62.664-6a2.639,2.639,0,0,0-.984-1.024,2.574,2.574,0,0,0-1.312-.352,2.62,2.62,0,0,0-1.312.344,2.594,2.594,0,0,0-.984,1.008A3.147,3.147,0,0,0,57.7-4.448a3.284,3.284,0,0,0,.376,1.6A2.653,2.653,0,0,0,59.064-1.8a2.544,2.544,0,0,0,1.3.36,2.574,2.574,0,0,0,1.312-.352,2.626,2.626,0,0,0,.984-1.032A3.238,3.238,0,0,0,63.04-4.416ZM76.512.112a5.76,5.76,0,0,1-2.856-.728,5.394,5.394,0,0,1-2.064-2.032,5.722,5.722,0,0,1-.76-2.936,5.679,5.679,0,0,1,.76-2.928,5.411,5.411,0,0,1,2.064-2.024,5.76,5.76,0,0,1,2.856-.728,5.792,5.792,0,0,1,2.872.728A5.354,5.354,0,0,1,81.44-8.512a5.726,5.726,0,0,1,.752,2.928,5.77,5.77,0,0,1-.752,2.936A5.337,5.337,0,0,1,79.384-.616,5.792,5.792,0,0,1,76.512.112Zm0-1.584a3.833,3.833,0,0,0,1.968-.5,3.494,3.494,0,0,0,1.352-1.44,4.624,4.624,0,0,0,.488-2.168,4.575,4.575,0,0,0-.488-2.16A3.452,3.452,0,0,0,78.48-9.168a3.881,3.881,0,0,0-1.968-.5,3.881,3.881,0,0,0-1.968.5,3.452,3.452,0,0,0-1.352,1.424,4.575,4.575,0,0,0-.488,2.16,4.624,4.624,0,0,0,.488,2.168,3.494,3.494,0,0,0,1.352,1.44A3.833,3.833,0,0,0,76.512-1.472Zm9.3-6.064a2.865,2.865,0,0,1,1.064-1.048,3.147,3.147,0,0,1,1.576-.376v1.888h-.464a2.221,2.221,0,0,0-1.624.544,2.6,2.6,0,0,0-.552,1.888V0H83.984V-8.816h1.824ZM89.52-4.448A4.879,4.879,0,0,1,90.072-6.8a4.046,4.046,0,0,1,1.5-1.592A4.059,4.059,0,0,1,93.7-8.96a4.134,4.134,0,0,1,1.7.376,3.487,3.487,0,0,1,1.336,1V-11.84h1.84V0h-1.84V-1.328A3.415,3.415,0,0,1,95.5-.272,3.847,3.847,0,0,1,93.68.144a3.945,3.945,0,0,1-2.1-.584,4.122,4.122,0,0,1-1.5-1.632A5.021,5.021,0,0,1,89.52-4.448Zm7.216.032A3.192,3.192,0,0,0,96.36-6a2.639,2.639,0,0,0-.984-1.024,2.574,2.574,0,0,0-1.312-.352,2.621,2.621,0,0,0-1.312.344,2.594,2.594,0,0,0-.984,1.008,3.147,3.147,0,0,0-.376,1.576,3.284,3.284,0,0,0,.376,1.6A2.653,2.653,0,0,0,92.76-1.8a2.544,2.544,0,0,0,1.3.36,2.574,2.574,0,0,0,1.312-.352,2.626,2.626,0,0,0,.984-1.032A3.238,3.238,0,0,0,96.736-4.416Zm12.32-.208a5.7,5.7,0,0,1-.064.9h-6.736a2.446,2.446,0,0,0,.784,1.7,2.475,2.475,0,0,0,1.728.64,2.134,2.134,0,0,0,2.08-1.232h1.968a3.971,3.971,0,0,1-1.448,1.992,4.249,4.249,0,0,1-2.6.776A4.5,4.5,0,0,1,102.5-.424a4.041,4.041,0,0,1-1.568-1.6,4.881,4.881,0,0,1-.568-2.392,5,5,0,0,1,.552-2.392A3.882,3.882,0,0,1,102.472-8.4a4.619,4.619,0,0,1,2.3-.56,4.49,4.49,0,0,1,2.224.544,3.844,3.844,0,0,1,1.52,1.528A4.6,4.6,0,0,1,109.056-4.624Zm-1.9-.576a2.076,2.076,0,0,0-.72-1.616,2.574,2.574,0,0,0-1.744-.608,2.343,2.343,0,0,0-1.616.6,2.507,2.507,0,0,0-.8,1.624Zm5.52-2.336a2.865,2.865,0,0,1,1.064-1.048,3.147,3.147,0,0,1,1.576-.376v1.888h-.464a2.221,2.221,0,0,0-1.624.544,2.6,2.6,0,0,0-.552,1.888V0h-1.824V-8.816h1.824Zm7.52,7.68a4.442,4.442,0,0,1-1.864-.376,3.274,3.274,0,0,1-1.3-1.024,2.552,2.552,0,0,1-.512-1.448H118.4a1.287,1.287,0,0,0,.536.936,1.946,1.946,0,0,0,1.224.376,2.062,2.062,0,0,0,1.192-.3.893.893,0,0,0,.424-.76.78.78,0,0,0-.472-.736,8.847,8.847,0,0,0-1.5-.528,14.439,14.439,0,0,1-1.616-.528,2.833,2.833,0,0,1-1.08-.784,2.055,2.055,0,0,1-.456-1.392,2.171,2.171,0,0,1,.416-1.288,2.77,2.77,0,0,1,1.192-.92,4.454,4.454,0,0,1,1.784-.336,3.684,3.684,0,0,1,2.424.76,2.729,2.729,0,0,1,.984,2.072h-1.824a1.3,1.3,0,0,0-.48-.944,1.8,1.8,0,0,0-1.168-.352,1.9,1.9,0,0,0-1.1.272.842.842,0,0,0-.384.72.779.779,0,0,0,.256.592,1.824,1.824,0,0,0,.624.376q.368.136,1.088.344a11.836,11.836,0,0,1,1.576.52,2.934,2.934,0,0,1,1.064.776,2.053,2.053,0,0,1,.464,1.36,2.281,2.281,0,0,1-.416,1.344,2.758,2.758,0,0,1-1.176.928A4.382,4.382,0,0,1,120.192.144Z" transform="translate(23 111)" fill="#fff"/>
          </g>
        </g>
        <g transform="matrix(1, 0, 0, 1, 316, 187)" filter="url(#Path_1167)">
          <path id="Path_1167-2" data-name="Path 1167" d="M1.665-23.125v-3.848h7.7V0H5.106V-23.125Zm30.6-.592L21.978,0H17.723l10.4-23.273H14.43v-3.589H32.264Z" transform="translate(23 167.99)" fill="url(#linear-gradient-9)"/>
        </g>
        <g data-type="innerShadowGroup">
          <g transform="matrix(1, 0, 0, 1, 316, 187)" filter="url(#Path_1168)">
            <path id="Path_1168-3" data-name="Path 1168" d="M1.665-23.125v-3.848h7.7V0H5.106V-23.125Zm30.6-.592L21.978,0H17.723l10.4-23.273H14.43v-3.589H32.264Z" transform="translate(23 167.99)" fill="url(#linear-gradient-10)"/>
          </g>
          <g transform="matrix(1, 0, 0, 1, 316, 187)" filter="url(#Path_1168-2)">
            <path id="Path_1168-4" data-name="Path 1168" d="M1.665-23.125v-3.848h7.7V0H5.106V-23.125Zm30.6-.592L21.978,0H17.723l10.4-23.273H14.43v-3.589H32.264Z" transform="translate(23 167.99)" fill="#fff"/>
          </g>
        </g>
      </g>
    </g>
  </g>
</svg>
