<svg xmlns="http://www.w3.org/2000/svg" xmlns:xlink="http://www.w3.org/1999/xlink" width="114.92" height="20.984" viewBox="0 0 114.92 20.984"><defs><linearGradient id="a" x1="0.874" y1="0.981" x2="0.033" y2="0.027" gradientUnits="objectBoundingBox"><stop offset="0" stop-color="#fff"/><stop offset="1" stop-color="#bebebe"/></linearGradient><filter id="b" x="0" y="0" width="112.92" height="18.984" filterUnits="userSpaceOnUse"><feOffset dx="-1" dy="-1" input="SourceAlpha"/><feGaussianBlur stdDeviation="0.5" result="c"/><feFlood flood-color="#fff" flood-opacity="0.769"/><feComposite operator="in" in2="c"/><feComposite in="SourceGraphic"/></filter><filter id="d" x="2" y="2" width="112.92" height="18.984" filterUnits="userSpaceOnUse"><feOffset dx="1" dy="1" input="SourceAlpha"/><feGaussianBlur stdDeviation="0.5" result="e"/><feFlood flood-opacity="0.431"/><feComposite operator="in" in2="e"/><feComposite in="SourceGraphic"/></filter></defs><g transform="translate(-337.7 -283.656)"><g transform="matrix(1, 0, 0, 1, 337.7, 283.66)" filter="url(#b)"><path d="M12.912-11.12V0H11.088V-7.616L7.7,0H6.432L3.024-7.616V0H1.2V-11.12H3.168l3.9,8.72,3.888-8.72ZM19.136.144A4.515,4.515,0,0,1,16.88-.424a4.08,4.08,0,0,1-1.584-1.6,4.826,4.826,0,0,1-.576-2.392A4.734,4.734,0,0,1,15.312-6.8a4.089,4.089,0,0,1,1.616-1.6,4.689,4.689,0,0,1,2.288-.56A4.689,4.689,0,0,1,21.5-8.4,4.089,4.089,0,0,1,23.12-6.8a4.734,4.734,0,0,1,.592,2.384A4.635,4.635,0,0,1,23.1-2.032,4.21,4.21,0,0,1,21.448-.424,4.773,4.773,0,0,1,19.136.144Zm0-1.584a2.714,2.714,0,0,0,1.32-.336,2.56,2.56,0,0,0,1-1.008,3.241,3.241,0,0,0,.384-1.632,3.308,3.308,0,0,0-.368-1.624,2.484,2.484,0,0,0-.976-1,2.669,2.669,0,0,0-1.312-.336,2.625,2.625,0,0,0-1.3.336,2.4,2.4,0,0,0-.952,1,3.432,3.432,0,0,0-.352,1.624,3.093,3.093,0,0,0,.728,2.2A2.406,2.406,0,0,0,19.136-1.44ZM29.968-8.96a3.953,3.953,0,0,1,1.864.432,3.072,3.072,0,0,1,1.288,1.28A4.211,4.211,0,0,1,33.584-5.2V0H31.776V-4.928a2.559,2.559,0,0,0-.592-1.816,2.107,2.107,0,0,0-1.616-.632,2.133,2.133,0,0,0-1.624.632,2.537,2.537,0,0,0-.6,1.816V0H25.52V-8.816h1.824v1.008a3.019,3.019,0,0,1,1.144-.848A3.657,3.657,0,0,1,29.968-8.96Zm8.064,1.632v4.88a.937.937,0,0,0,.232.712,1.154,1.154,0,0,0,.792.216h1.12V0h-1.44a2.776,2.776,0,0,1-1.888-.576,2.374,2.374,0,0,1-.656-1.872v-4.88h-1.04V-8.816h1.04v-2.192h1.84v2.192h2.144v1.488ZM46.416-8.96a3.7,3.7,0,0,1,1.8.432,3.075,3.075,0,0,1,1.248,1.28A4.271,4.271,0,0,1,49.92-5.2V0H48.112V-4.928a2.559,2.559,0,0,0-.592-1.816A2.107,2.107,0,0,0,45.9-7.376a2.133,2.133,0,0,0-1.624.632,2.537,2.537,0,0,0-.6,1.816V0H41.856V-11.84H43.68v4.048a3.058,3.058,0,0,1,1.176-.864A3.932,3.932,0,0,1,46.416-8.96Zm7.648-2.88V0H52.24V-11.84ZM64.4-8.816,58.992,4.144H57.1L58.9-.144,55.424-8.816h2.032l2.48,6.72,2.576-6.72ZM73.6.112A4.98,4.98,0,0,1,71.584-.28a3.308,3.308,0,0,1-1.408-1.112,2.824,2.824,0,0,1-.512-1.68h1.952a1.762,1.762,0,0,0,.568,1.184,2.014,2.014,0,0,0,1.416.464,2.181,2.181,0,0,0,1.472-.456A1.482,1.482,0,0,0,75.6-3.056a1.284,1.284,0,0,0-.328-.912,2.194,2.194,0,0,0-.816-.544A12.305,12.305,0,0,0,73.1-4.928a12.667,12.667,0,0,1-1.768-.584,2.922,2.922,0,0,1-1.16-.92A2.659,2.659,0,0,1,69.7-8.1a2.958,2.958,0,0,1,.48-1.68,3.066,3.066,0,0,1,1.344-1.1,4.883,4.883,0,0,1,2-.384,4.168,4.168,0,0,1,2.648.808A2.981,2.981,0,0,1,77.312-8.24H75.3a1.461,1.461,0,0,0-.576-1.04,2.129,2.129,0,0,0-1.392-.432,1.975,1.975,0,0,0-1.28.4,1.394,1.394,0,0,0-.5,1.152,1.169,1.169,0,0,0,.312.84,2.2,2.2,0,0,0,.792.52,12.3,12.3,0,0,0,1.312.416,13.7,13.7,0,0,1,1.8.608,3,3,0,0,1,1.184.936,2.69,2.69,0,0,1,.488,1.688,3.035,3.035,0,0,1-.456,1.6A3.29,3.29,0,0,1,75.656-.344,4.379,4.379,0,0,1,73.6.112Zm5.392-4.56A4.879,4.879,0,0,1,79.544-6.8a4.046,4.046,0,0,1,1.5-1.592,4.029,4.029,0,0,1,2.1-.568,3.849,3.849,0,0,1,1.816.408,3.685,3.685,0,0,1,1.24,1.016v-1.28h1.84V0h-1.84V-1.312a3.622,3.622,0,0,1-1.264,1.04A3.9,3.9,0,0,1,83.12.144,3.877,3.877,0,0,1,81.04-.44a4.142,4.142,0,0,1-1.5-1.632A5.021,5.021,0,0,1,78.992-4.448Zm7.216.032A3.192,3.192,0,0,0,85.832-6a2.639,2.639,0,0,0-.984-1.024,2.574,2.574,0,0,0-1.312-.352,2.621,2.621,0,0,0-1.312.344,2.594,2.594,0,0,0-.984,1.008,3.147,3.147,0,0,0-.376,1.576,3.284,3.284,0,0,0,.376,1.6A2.653,2.653,0,0,0,82.232-1.8a2.544,2.544,0,0,0,1.3.36,2.574,2.574,0,0,0,1.312-.352,2.626,2.626,0,0,0,.984-1.032A3.238,3.238,0,0,0,86.208-4.416Zm6.064-7.424V0H90.448V-11.84Zm10.48,7.216a5.7,5.7,0,0,1-.064.9H95.952a2.446,2.446,0,0,0,.784,1.7,2.475,2.475,0,0,0,1.728.64,2.134,2.134,0,0,0,2.08-1.232h1.968a3.971,3.971,0,0,1-1.448,1.992,4.249,4.249,0,0,1-2.6.776A4.5,4.5,0,0,1,96.2-.424a4.041,4.041,0,0,1-1.568-1.6,4.881,4.881,0,0,1-.568-2.392,5,5,0,0,1,.552-2.392A3.882,3.882,0,0,1,96.168-8.4a4.619,4.619,0,0,1,2.3-.56,4.49,4.49,0,0,1,2.224.544,3.844,3.844,0,0,1,1.52,1.528A4.6,4.6,0,0,1,102.752-4.624Zm-1.9-.576a2.076,2.076,0,0,0-.72-1.616,2.574,2.574,0,0,0-1.744-.608,2.343,2.343,0,0,0-1.616.6,2.507,2.507,0,0,0-.8,1.624Zm6.9,5.344a4.442,4.442,0,0,1-1.864-.376,3.274,3.274,0,0,1-1.3-1.024,2.552,2.552,0,0,1-.512-1.448h1.888a1.287,1.287,0,0,0,.536.936,1.946,1.946,0,0,0,1.224.376,2.062,2.062,0,0,0,1.192-.3.893.893,0,0,0,.424-.76.78.78,0,0,0-.472-.736,8.847,8.847,0,0,0-1.5-.528,14.439,14.439,0,0,1-1.616-.528,2.833,2.833,0,0,1-1.08-.784,2.055,2.055,0,0,1-.456-1.392,2.171,2.171,0,0,1,.416-1.288,2.77,2.77,0,0,1,1.192-.92A4.454,4.454,0,0,1,107.6-8.96a3.684,3.684,0,0,1,2.424.76,2.729,2.729,0,0,1,.984,2.072h-1.824a1.3,1.3,0,0,0-.48-.944,1.8,1.8,0,0,0-1.168-.352,1.9,1.9,0,0,0-1.1.272.842.842,0,0,0-.384.72.779.779,0,0,0,.256.592,1.824,1.824,0,0,0,.624.376q.368.136,1.088.344a11.835,11.835,0,0,1,1.576.52,2.934,2.934,0,0,1,1.064.776,2.053,2.053,0,0,1,.464,1.36A2.281,2.281,0,0,1,110.7-1.12a2.758,2.758,0,0,1-1.176.928A4.382,4.382,0,0,1,107.744.144Z" transform="translate(1.3 14.34)" fill="url(#a)"/></g><g transform="matrix(1, 0, 0, 1, 337.7, 283.66)" filter="url(#d)"><path d="M12.912-11.12V0H11.088V-7.616L7.7,0H6.432L3.024-7.616V0H1.2V-11.12H3.168l3.9,8.72,3.888-8.72ZM19.136.144A4.515,4.515,0,0,1,16.88-.424a4.08,4.08,0,0,1-1.584-1.6,4.826,4.826,0,0,1-.576-2.392A4.734,4.734,0,0,1,15.312-6.8a4.089,4.089,0,0,1,1.616-1.6,4.689,4.689,0,0,1,2.288-.56A4.689,4.689,0,0,1,21.5-8.4,4.089,4.089,0,0,1,23.12-6.8a4.734,4.734,0,0,1,.592,2.384A4.635,4.635,0,0,1,23.1-2.032,4.21,4.21,0,0,1,21.448-.424,4.773,4.773,0,0,1,19.136.144Zm0-1.584a2.714,2.714,0,0,0,1.32-.336,2.56,2.56,0,0,0,1-1.008,3.241,3.241,0,0,0,.384-1.632,3.308,3.308,0,0,0-.368-1.624,2.484,2.484,0,0,0-.976-1,2.669,2.669,0,0,0-1.312-.336,2.625,2.625,0,0,0-1.3.336,2.4,2.4,0,0,0-.952,1,3.432,3.432,0,0,0-.352,1.624,3.093,3.093,0,0,0,.728,2.2A2.406,2.406,0,0,0,19.136-1.44ZM29.968-8.96a3.953,3.953,0,0,1,1.864.432,3.072,3.072,0,0,1,1.288,1.28A4.211,4.211,0,0,1,33.584-5.2V0H31.776V-4.928a2.559,2.559,0,0,0-.592-1.816,2.107,2.107,0,0,0-1.616-.632,2.133,2.133,0,0,0-1.624.632,2.537,2.537,0,0,0-.6,1.816V0H25.52V-8.816h1.824v1.008a3.019,3.019,0,0,1,1.144-.848A3.657,3.657,0,0,1,29.968-8.96Zm8.064,1.632v4.88a.937.937,0,0,0,.232.712,1.154,1.154,0,0,0,.792.216h1.12V0h-1.44a2.776,2.776,0,0,1-1.888-.576,2.374,2.374,0,0,1-.656-1.872v-4.88h-1.04V-8.816h1.04v-2.192h1.84v2.192h2.144v1.488ZM46.416-8.96a3.7,3.7,0,0,1,1.8.432,3.075,3.075,0,0,1,1.248,1.28A4.271,4.271,0,0,1,49.92-5.2V0H48.112V-4.928a2.559,2.559,0,0,0-.592-1.816A2.107,2.107,0,0,0,45.9-7.376a2.133,2.133,0,0,0-1.624.632,2.537,2.537,0,0,0-.6,1.816V0H41.856V-11.84H43.68v4.048a3.058,3.058,0,0,1,1.176-.864A3.932,3.932,0,0,1,46.416-8.96Zm7.648-2.88V0H52.24V-11.84ZM64.4-8.816,58.992,4.144H57.1L58.9-.144,55.424-8.816h2.032l2.48,6.72,2.576-6.72ZM73.6.112A4.98,4.98,0,0,1,71.584-.28a3.308,3.308,0,0,1-1.408-1.112,2.824,2.824,0,0,1-.512-1.68h1.952a1.762,1.762,0,0,0,.568,1.184,2.014,2.014,0,0,0,1.416.464,2.181,2.181,0,0,0,1.472-.456A1.482,1.482,0,0,0,75.6-3.056a1.284,1.284,0,0,0-.328-.912,2.194,2.194,0,0,0-.816-.544A12.305,12.305,0,0,0,73.1-4.928a12.667,12.667,0,0,1-1.768-.584,2.922,2.922,0,0,1-1.16-.92A2.659,2.659,0,0,1,69.7-8.1a2.958,2.958,0,0,1,.48-1.68,3.066,3.066,0,0,1,1.344-1.1,4.883,4.883,0,0,1,2-.384,4.168,4.168,0,0,1,2.648.808A2.981,2.981,0,0,1,77.312-8.24H75.3a1.461,1.461,0,0,0-.576-1.04,2.129,2.129,0,0,0-1.392-.432,1.975,1.975,0,0,0-1.28.4,1.394,1.394,0,0,0-.5,1.152,1.169,1.169,0,0,0,.312.84,2.2,2.2,0,0,0,.792.52,12.3,12.3,0,0,0,1.312.416,13.7,13.7,0,0,1,1.8.608,3,3,0,0,1,1.184.936,2.69,2.69,0,0,1,.488,1.688,3.035,3.035,0,0,1-.456,1.6A3.29,3.29,0,0,1,75.656-.344,4.379,4.379,0,0,1,73.6.112Zm5.392-4.56A4.879,4.879,0,0,1,79.544-6.8a4.046,4.046,0,0,1,1.5-1.592,4.029,4.029,0,0,1,2.1-.568,3.849,3.849,0,0,1,1.816.408,3.685,3.685,0,0,1,1.24,1.016v-1.28h1.84V0h-1.84V-1.312a3.622,3.622,0,0,1-1.264,1.04A3.9,3.9,0,0,1,83.12.144,3.877,3.877,0,0,1,81.04-.44a4.142,4.142,0,0,1-1.5-1.632A5.021,5.021,0,0,1,78.992-4.448Zm7.216.032A3.192,3.192,0,0,0,85.832-6a2.639,2.639,0,0,0-.984-1.024,2.574,2.574,0,0,0-1.312-.352,2.621,2.621,0,0,0-1.312.344,2.594,2.594,0,0,0-.984,1.008,3.147,3.147,0,0,0-.376,1.576,3.284,3.284,0,0,0,.376,1.6A2.653,2.653,0,0,0,82.232-1.8a2.544,2.544,0,0,0,1.3.36,2.574,2.574,0,0,0,1.312-.352,2.626,2.626,0,0,0,.984-1.032A3.238,3.238,0,0,0,86.208-4.416Zm6.064-7.424V0H90.448V-11.84Zm10.48,7.216a5.7,5.7,0,0,1-.064.9H95.952a2.446,2.446,0,0,0,.784,1.7,2.475,2.475,0,0,0,1.728.64,2.134,2.134,0,0,0,2.08-1.232h1.968a3.971,3.971,0,0,1-1.448,1.992,4.249,4.249,0,0,1-2.6.776A4.5,4.5,0,0,1,96.2-.424a4.041,4.041,0,0,1-1.568-1.6,4.881,4.881,0,0,1-.568-2.392,5,5,0,0,1,.552-2.392A3.882,3.882,0,0,1,96.168-8.4a4.619,4.619,0,0,1,2.3-.56,4.49,4.49,0,0,1,2.224.544,3.844,3.844,0,0,1,1.52,1.528A4.6,4.6,0,0,1,102.752-4.624Zm-1.9-.576a2.076,2.076,0,0,0-.72-1.616,2.574,2.574,0,0,0-1.744-.608,2.343,2.343,0,0,0-1.616.6,2.507,2.507,0,0,0-.8,1.624Zm6.9,5.344a4.442,4.442,0,0,1-1.864-.376,3.274,3.274,0,0,1-1.3-1.024,2.552,2.552,0,0,1-.512-1.448h1.888a1.287,1.287,0,0,0,.536.936,1.946,1.946,0,0,0,1.224.376,2.062,2.062,0,0,0,1.192-.3.893.893,0,0,0,.424-.76.78.78,0,0,0-.472-.736,8.847,8.847,0,0,0-1.5-.528,14.439,14.439,0,0,1-1.616-.528,2.833,2.833,0,0,1-1.08-.784,2.055,2.055,0,0,1-.456-1.392,2.171,2.171,0,0,1,.416-1.288,2.77,2.77,0,0,1,1.192-.92A4.454,4.454,0,0,1,107.6-8.96a3.684,3.684,0,0,1,2.424.76,2.729,2.729,0,0,1,.984,2.072h-1.824a1.3,1.3,0,0,0-.48-.944,1.8,1.8,0,0,0-1.168-.352,1.9,1.9,0,0,0-1.1.272.842.842,0,0,0-.384.72.779.779,0,0,0,.256.592,1.824,1.824,0,0,0,.624.376q.368.136,1.088.344a11.835,11.835,0,0,1,1.576.52,2.934,2.934,0,0,1,1.064.776,2.053,2.053,0,0,1,.464,1.36A2.281,2.281,0,0,1,110.7-1.12a2.758,2.758,0,0,1-1.176.928A4.382,4.382,0,0,1,107.744.144Z" transform="translate(1.3 14.34)" fill="#fff"/></g></g></svg>