<svg xmlns="http://www.w3.org/2000/svg" xmlns:xlink="http://www.w3.org/1999/xlink" width="99.304" height="15.496" viewBox="0 0 99.304 15.496"><defs><filter id="a" x="0" y="0" width="99.304" height="15.496" filterUnits="userSpaceOnUse"><feOffset dx="1" dy="1" input="SourceAlpha"/><feGaussianBlur stdDeviation="0.5" result="b"/><feFlood flood-opacity="0.431"/><feComposite operator="in" in2="b"/><feComposite in="SourceGraphic"/></filter></defs><g transform="translate(-339.092 -285.144)"><g transform="matrix(1, 0, 0, 1, 339.09, 285.14)" filter="url(#a)"><path d="M6.272.112A5.76,5.76,0,0,1,3.416-.616,5.394,5.394,0,0,1,1.352-2.648a5.722,5.722,0,0,1-.76-2.936,5.679,5.679,0,0,1,.76-2.928,5.411,5.411,0,0,1,2.064-2.024,5.76,5.76,0,0,1,2.856-.728,5.792,5.792,0,0,1,2.872.728A5.354,5.354,0,0,1,11.2-8.512a5.726,5.726,0,0,1,.752,2.928A5.77,5.77,0,0,1,11.2-2.648,5.337,5.337,0,0,1,9.144-.616,5.792,5.792,0,0,1,6.272.112Zm0-1.584a3.833,3.833,0,0,0,1.968-.5,3.494,3.494,0,0,0,1.352-1.44,4.624,4.624,0,0,0,.488-2.168,4.575,4.575,0,0,0-.488-2.16A3.452,3.452,0,0,0,8.24-9.168a3.881,3.881,0,0,0-1.968-.5,3.881,3.881,0,0,0-1.968.5A3.452,3.452,0,0,0,2.952-7.744a4.575,4.575,0,0,0-.488,2.16,4.624,4.624,0,0,0,.488,2.168A3.494,3.494,0,0,0,4.3-1.976,3.833,3.833,0,0,0,6.272-1.472ZM21.728-8.816V0H19.9V-1.04a2.952,2.952,0,0,1-1.128.856A3.577,3.577,0,0,1,17.3.128,3.953,3.953,0,0,1,15.432-.3a3.121,3.121,0,0,1-1.3-1.28,4.152,4.152,0,0,1-.472-2.048V-8.816h1.808V-3.9a2.559,2.559,0,0,0,.592,1.816,2.107,2.107,0,0,0,1.616.632A2.133,2.133,0,0,0,19.3-2.088,2.537,2.537,0,0,0,19.9-3.9V-8.816Zm4.528,1.488v4.88a.937.937,0,0,0,.232.712,1.154,1.154,0,0,0,.792.216H28.4V0H26.96a2.776,2.776,0,0,1-1.888-.576,2.374,2.374,0,0,1-.656-1.872v-4.88h-1.04V-8.816h1.04v-2.192h1.84v2.192H28.4v1.488ZM38.064.144a4.515,4.515,0,0,1-2.256-.568,4.08,4.08,0,0,1-1.584-1.6,4.826,4.826,0,0,1-.576-2.392A4.734,4.734,0,0,1,34.24-6.8a4.089,4.089,0,0,1,1.616-1.6,4.689,4.689,0,0,1,2.288-.56,4.689,4.689,0,0,1,2.288.56,4.089,4.089,0,0,1,1.616,1.6,4.734,4.734,0,0,1,.592,2.384,4.636,4.636,0,0,1-.608,2.384A4.21,4.21,0,0,1,40.376-.424,4.773,4.773,0,0,1,38.064.144Zm0-1.584a2.714,2.714,0,0,0,1.32-.336,2.56,2.56,0,0,0,1-1.008,3.241,3.241,0,0,0,.384-1.632A3.308,3.308,0,0,0,40.4-6.04a2.484,2.484,0,0,0-.976-1,2.669,2.669,0,0,0-1.312-.336,2.625,2.625,0,0,0-1.3.336,2.4,2.4,0,0,0-.952,1A3.432,3.432,0,0,0,35.5-4.416a3.093,3.093,0,0,0,.728,2.2A2.406,2.406,0,0,0,38.064-1.44Zm10.08-5.888H46.512V0h-1.84V-7.328h-1.04V-8.816h1.04V-9.44a2.774,2.774,0,0,1,.808-2.216,3.831,3.831,0,0,1,2.536-.7v1.52a1.712,1.712,0,0,0-1.168.312,1.43,1.43,0,0,0-.336,1.08v.624h1.632Zm9.44,7.44A4.98,4.98,0,0,1,55.568-.28,3.308,3.308,0,0,1,54.16-1.392a2.824,2.824,0,0,1-.512-1.68H55.6a1.762,1.762,0,0,0,.568,1.184,2.013,2.013,0,0,0,1.416.464,2.181,2.181,0,0,0,1.472-.456,1.482,1.482,0,0,0,.528-1.176,1.284,1.284,0,0,0-.328-.912,2.194,2.194,0,0,0-.816-.544,12.306,12.306,0,0,0-1.352-.416,12.667,12.667,0,0,1-1.768-.584,2.922,2.922,0,0,1-1.16-.92A2.659,2.659,0,0,1,53.68-8.1a2.958,2.958,0,0,1,.48-1.68,3.066,3.066,0,0,1,1.344-1.1,4.883,4.883,0,0,1,2-.384,4.168,4.168,0,0,1,2.648.808A2.981,2.981,0,0,1,61.3-8.24H59.28A1.461,1.461,0,0,0,58.7-9.28a2.129,2.129,0,0,0-1.392-.432,1.975,1.975,0,0,0-1.28.4,1.394,1.394,0,0,0-.5,1.152,1.169,1.169,0,0,0,.312.84,2.2,2.2,0,0,0,.792.52,12.3,12.3,0,0,0,1.312.416,13.7,13.7,0,0,1,1.8.608,3,3,0,0,1,1.184.936,2.69,2.69,0,0,1,.488,1.688,3.035,3.035,0,0,1-.456,1.6A3.29,3.29,0,0,1,59.64-.344,4.379,4.379,0,0,1,57.584.112Zm8.128-7.44v4.88a.937.937,0,0,0,.232.712,1.154,1.154,0,0,0,.792.216h1.12V0h-1.44a2.776,2.776,0,0,1-1.888-.576,2.374,2.374,0,0,1-.656-1.872v-4.88h-1.04V-8.816h1.04v-2.192h1.84v2.192h2.144v1.488ZM73.36.144A4.515,4.515,0,0,1,71.1-.424a4.08,4.08,0,0,1-1.584-1.6,4.826,4.826,0,0,1-.576-2.392A4.734,4.734,0,0,1,69.536-6.8a4.089,4.089,0,0,1,1.616-1.6,4.689,4.689,0,0,1,2.288-.56,4.689,4.689,0,0,1,2.288.56,4.089,4.089,0,0,1,1.616,1.6,4.734,4.734,0,0,1,.592,2.384,4.635,4.635,0,0,1-.608,2.384A4.21,4.21,0,0,1,75.672-.424,4.773,4.773,0,0,1,73.36.144Zm0-1.584a2.714,2.714,0,0,0,1.32-.336,2.56,2.56,0,0,0,1-1.008,3.241,3.241,0,0,0,.384-1.632A3.308,3.308,0,0,0,75.7-6.04a2.484,2.484,0,0,0-.976-1,2.669,2.669,0,0,0-1.312-.336,2.625,2.625,0,0,0-1.3.336,2.4,2.4,0,0,0-.952,1A3.432,3.432,0,0,0,70.8-4.416a3.093,3.093,0,0,0,.728,2.2A2.406,2.406,0,0,0,73.36-1.44Zm5.776-2.976a5,5,0,0,1,.552-2.392A3.926,3.926,0,0,1,81.216-8.4a4.42,4.42,0,0,1,2.24-.56A4.4,4.4,0,0,1,86.1-8.2,3.741,3.741,0,0,1,87.52-6.032H85.552a2.081,2.081,0,0,0-.768-1.024,2.268,2.268,0,0,0-1.328-.368,2.208,2.208,0,0,0-1.784.792,3.351,3.351,0,0,0-.664,2.216,3.384,3.384,0,0,0,.664,2.224,2.2,2.2,0,0,0,1.784.8,2.024,2.024,0,0,0,2.1-1.392H87.52A3.94,3.94,0,0,1,86.08-.648a4.25,4.25,0,0,1-2.624.792,4.371,4.371,0,0,1-2.24-.568,3.981,3.981,0,0,1-1.528-1.6A5,5,0,0,1,79.136-4.416Zm13.7.016L96.9,0H94.432L91.168-3.792V0H89.344V-11.84h1.824v6.88l3.2-3.856H96.9Z" transform="translate(-0.09 12.85)" fill="#fff"/></g></g></svg>