<svg xmlns="http://www.w3.org/2000/svg" xmlns:xlink="http://www.w3.org/1999/xlink" width="127.368" height="21.672" viewBox="0 0 127.368 21.672"><defs><linearGradient id="a" x1="0.874" y1="0.981" x2="0.033" y2="0.027" gradientUnits="objectBoundingBox"><stop offset="0" stop-color="#fff"/><stop offset="1" stop-color="#bebebe"/></linearGradient><filter id="b" x="0" y="0" width="125.368" height="19.672" filterUnits="userSpaceOnUse"><feOffset dx="-1" dy="-1" input="SourceAlpha"/><feGaussianBlur stdDeviation="0.5" result="c"/><feFlood flood-color="#fff" flood-opacity="0.769"/><feComposite operator="in" in2="c"/><feComposite in="SourceGraphic"/></filter><filter id="d" x="2" y="2" width="125.368" height="19.672" filterUnits="userSpaceOnUse"><feOffset dx="1" dy="1" input="SourceAlpha"/><feGaussianBlur stdDeviation="0.5" result="e"/><feFlood flood-opacity="0.431"/><feComposite operator="in" in2="e"/><feComposite in="SourceGraphic"/></filter></defs><g transform="translate(-337.7 -283.176)"><g transform="matrix(1, 0, 0, 1, 337.7, 283.18)" filter="url(#b)"><path d="M8.976-7.808a3.358,3.358,0,0,1-.4,1.6A3,3,0,0,1,7.3-4.984a4.751,4.751,0,0,1-2.256.472H3.024V0H1.2V-11.12H5.04a4.848,4.848,0,0,1,2.168.44A3.059,3.059,0,0,1,8.536-9.488,3.265,3.265,0,0,1,8.976-7.808ZM5.04-6a2.224,2.224,0,0,0,1.552-.472A1.726,1.726,0,0,0,7.1-7.808q0-1.824-2.064-1.824H3.024V-6ZM18.8-4.624a5.7,5.7,0,0,1-.064.9H12a2.446,2.446,0,0,0,.784,1.7,2.475,2.475,0,0,0,1.728.64,2.134,2.134,0,0,0,2.08-1.232H18.56A3.971,3.971,0,0,1,17.112-.632a4.249,4.249,0,0,1-2.6.776,4.5,4.5,0,0,1-2.264-.568,4.041,4.041,0,0,1-1.568-1.6,4.881,4.881,0,0,1-.568-2.392,5,5,0,0,1,.552-2.392A3.882,3.882,0,0,1,12.216-8.4a4.619,4.619,0,0,1,2.3-.56,4.49,4.49,0,0,1,2.224.544,3.844,3.844,0,0,1,1.52,1.528A4.6,4.6,0,0,1,18.8-4.624ZM16.9-5.2a2.076,2.076,0,0,0-.72-1.616,2.574,2.574,0,0,0-1.744-.608,2.343,2.343,0,0,0-1.616.6,2.507,2.507,0,0,0-.8,1.624ZM25.04-8.96a3.953,3.953,0,0,1,1.864.432,3.072,3.072,0,0,1,1.288,1.28A4.211,4.211,0,0,1,28.656-5.2V0H26.848V-4.928a2.559,2.559,0,0,0-.592-1.816,2.107,2.107,0,0,0-1.616-.632,2.133,2.133,0,0,0-1.624.632,2.537,2.537,0,0,0-.6,1.816V0H20.592V-8.816h1.824v1.008a3.019,3.019,0,0,1,1.144-.848A3.657,3.657,0,0,1,25.04-8.96Zm5.328,4.512A4.879,4.879,0,0,1,30.92-6.8a4.046,4.046,0,0,1,1.5-1.592,4.059,4.059,0,0,1,2.12-.568,4.134,4.134,0,0,1,1.7.376,3.487,3.487,0,0,1,1.336,1V-11.84h1.84V0h-1.84V-1.328a3.415,3.415,0,0,1-1.24,1.056,3.847,3.847,0,0,1-1.816.416,3.945,3.945,0,0,1-2.1-.584,4.122,4.122,0,0,1-1.5-1.632A5.021,5.021,0,0,1,30.368-4.448Zm7.216.032A3.192,3.192,0,0,0,37.208-6a2.639,2.639,0,0,0-.984-1.024,2.574,2.574,0,0,0-1.312-.352,2.621,2.621,0,0,0-1.312.344,2.594,2.594,0,0,0-.984,1.008,3.147,3.147,0,0,0-.376,1.576,3.284,3.284,0,0,0,.376,1.6A2.653,2.653,0,0,0,33.608-1.8a2.544,2.544,0,0,0,1.3.36,2.574,2.574,0,0,0,1.312-.352,2.626,2.626,0,0,0,.984-1.032A3.238,3.238,0,0,0,37.584-4.416Zm5.168-5.568a1.13,1.13,0,0,1-.832-.336,1.13,1.13,0,0,1-.336-.832,1.13,1.13,0,0,1,.336-.832,1.13,1.13,0,0,1,.832-.336,1.111,1.111,0,0,1,.816.336,1.13,1.13,0,0,1,.336.832,1.13,1.13,0,0,1-.336.832A1.111,1.111,0,0,1,42.752-9.984Zm.9,1.168V0H41.824V-8.816ZM50.5-8.96a3.953,3.953,0,0,1,1.864.432,3.072,3.072,0,0,1,1.288,1.28A4.211,4.211,0,0,1,54.112-5.2V0H52.3V-4.928a2.559,2.559,0,0,0-.592-1.816A2.107,2.107,0,0,0,50.1-7.376a2.133,2.133,0,0,0-1.624.632,2.537,2.537,0,0,0-.6,1.816V0H46.048V-8.816h1.824v1.008a3.019,3.019,0,0,1,1.144-.848A3.657,3.657,0,0,1,50.5-8.96Zm9.488,0a3.909,3.909,0,0,1,1.816.408,3.488,3.488,0,0,1,1.24,1.016v-1.28h1.84V.144a4.5,4.5,0,0,1-.512,2.168,3.7,3.7,0,0,1-1.48,1.5,4.647,4.647,0,0,1-2.312.544,5.017,5.017,0,0,1-2.976-.84,3.1,3.1,0,0,1-1.344-2.28h1.808a1.963,1.963,0,0,0,.888,1.112,3.007,3.007,0,0,0,1.624.424A2.428,2.428,0,0,0,62.36,2.1,2.625,2.625,0,0,0,63.04.144V-1.328A3.719,3.719,0,0,1,61.784-.28a3.754,3.754,0,0,1-1.8.424,3.945,3.945,0,0,1-2.1-.584,4.122,4.122,0,0,1-1.5-1.632,5.021,5.021,0,0,1-.552-2.376A4.879,4.879,0,0,1,56.376-6.8a4.046,4.046,0,0,1,1.5-1.592A4.029,4.029,0,0,1,59.984-8.96ZM63.04-4.416A3.192,3.192,0,0,0,62.664-6a2.639,2.639,0,0,0-.984-1.024,2.574,2.574,0,0,0-1.312-.352,2.62,2.62,0,0,0-1.312.344,2.594,2.594,0,0,0-.984,1.008A3.147,3.147,0,0,0,57.7-4.448a3.284,3.284,0,0,0,.376,1.6A2.653,2.653,0,0,0,59.064-1.8a2.544,2.544,0,0,0,1.3.36,2.574,2.574,0,0,0,1.312-.352,2.626,2.626,0,0,0,.984-1.032A3.238,3.238,0,0,0,63.04-4.416ZM76.512.112a5.76,5.76,0,0,1-2.856-.728,5.394,5.394,0,0,1-2.064-2.032,5.722,5.722,0,0,1-.76-2.936,5.679,5.679,0,0,1,.76-2.928,5.411,5.411,0,0,1,2.064-2.024,5.76,5.76,0,0,1,2.856-.728,5.792,5.792,0,0,1,2.872.728A5.354,5.354,0,0,1,81.44-8.512a5.726,5.726,0,0,1,.752,2.928,5.77,5.77,0,0,1-.752,2.936A5.337,5.337,0,0,1,79.384-.616,5.792,5.792,0,0,1,76.512.112Zm0-1.584a3.833,3.833,0,0,0,1.968-.5,3.494,3.494,0,0,0,1.352-1.44,4.624,4.624,0,0,0,.488-2.168,4.575,4.575,0,0,0-.488-2.16A3.452,3.452,0,0,0,78.48-9.168a3.881,3.881,0,0,0-1.968-.5,3.881,3.881,0,0,0-1.968.5,3.452,3.452,0,0,0-1.352,1.424,4.575,4.575,0,0,0-.488,2.16,4.624,4.624,0,0,0,.488,2.168,3.494,3.494,0,0,0,1.352,1.44A3.833,3.833,0,0,0,76.512-1.472Zm9.3-6.064a2.865,2.865,0,0,1,1.064-1.048,3.147,3.147,0,0,1,1.576-.376v1.888h-.464a2.221,2.221,0,0,0-1.624.544,2.6,2.6,0,0,0-.552,1.888V0H83.984V-8.816h1.824ZM89.52-4.448A4.879,4.879,0,0,1,90.072-6.8a4.046,4.046,0,0,1,1.5-1.592A4.059,4.059,0,0,1,93.7-8.96a4.134,4.134,0,0,1,1.7.376,3.487,3.487,0,0,1,1.336,1V-11.84h1.84V0h-1.84V-1.328A3.415,3.415,0,0,1,95.5-.272,3.847,3.847,0,0,1,93.68.144a3.945,3.945,0,0,1-2.1-.584,4.122,4.122,0,0,1-1.5-1.632A5.021,5.021,0,0,1,89.52-4.448Zm7.216.032A3.192,3.192,0,0,0,96.36-6a2.639,2.639,0,0,0-.984-1.024,2.574,2.574,0,0,0-1.312-.352,2.621,2.621,0,0,0-1.312.344,2.594,2.594,0,0,0-.984,1.008,3.147,3.147,0,0,0-.376,1.576,3.284,3.284,0,0,0,.376,1.6A2.653,2.653,0,0,0,92.76-1.8a2.544,2.544,0,0,0,1.3.36,2.574,2.574,0,0,0,1.312-.352,2.626,2.626,0,0,0,.984-1.032A3.238,3.238,0,0,0,96.736-4.416Zm12.32-.208a5.7,5.7,0,0,1-.064.9h-6.736a2.446,2.446,0,0,0,.784,1.7,2.475,2.475,0,0,0,1.728.64,2.134,2.134,0,0,0,2.08-1.232h1.968a3.971,3.971,0,0,1-1.448,1.992,4.249,4.249,0,0,1-2.6.776A4.5,4.5,0,0,1,102.5-.424a4.041,4.041,0,0,1-1.568-1.6,4.881,4.881,0,0,1-.568-2.392,5,5,0,0,1,.552-2.392A3.882,3.882,0,0,1,102.472-8.4a4.619,4.619,0,0,1,2.3-.56,4.49,4.49,0,0,1,2.224.544,3.844,3.844,0,0,1,1.52,1.528A4.6,4.6,0,0,1,109.056-4.624Zm-1.9-.576a2.076,2.076,0,0,0-.72-1.616,2.574,2.574,0,0,0-1.744-.608,2.343,2.343,0,0,0-1.616.6,2.507,2.507,0,0,0-.8,1.624Zm5.52-2.336a2.865,2.865,0,0,1,1.064-1.048,3.147,3.147,0,0,1,1.576-.376v1.888h-.464a2.221,2.221,0,0,0-1.624.544,2.6,2.6,0,0,0-.552,1.888V0h-1.824V-8.816h1.824Zm7.52,7.68a4.442,4.442,0,0,1-1.864-.376,3.274,3.274,0,0,1-1.3-1.024,2.552,2.552,0,0,1-.512-1.448H118.4a1.287,1.287,0,0,0,.536.936,1.946,1.946,0,0,0,1.224.376,2.062,2.062,0,0,0,1.192-.3.893.893,0,0,0,.424-.76.78.78,0,0,0-.472-.736,8.847,8.847,0,0,0-1.5-.528,14.439,14.439,0,0,1-1.616-.528,2.833,2.833,0,0,1-1.08-.784,2.055,2.055,0,0,1-.456-1.392,2.171,2.171,0,0,1,.416-1.288,2.77,2.77,0,0,1,1.192-.92,4.454,4.454,0,0,1,1.784-.336,3.684,3.684,0,0,1,2.424.76,2.729,2.729,0,0,1,.984,2.072h-1.824a1.3,1.3,0,0,0-.48-.944,1.8,1.8,0,0,0-1.168-.352,1.9,1.9,0,0,0-1.1.272.842.842,0,0,0-.384.72.779.779,0,0,0,.256.592,1.824,1.824,0,0,0,.624.376q.368.136,1.088.344a11.836,11.836,0,0,1,1.576.52,2.934,2.934,0,0,1,1.064.776,2.053,2.053,0,0,1,.464,1.36,2.281,2.281,0,0,1-.416,1.344,2.758,2.758,0,0,1-1.176.928A4.382,4.382,0,0,1,120.192.144Z" transform="translate(1.3 14.82)" fill="url(#a)"/></g><g transform="matrix(1, 0, 0, 1, 337.7, 283.18)" filter="url(#d)"><path d="M8.976-7.808a3.358,3.358,0,0,1-.4,1.6A3,3,0,0,1,7.3-4.984a4.751,4.751,0,0,1-2.256.472H3.024V0H1.2V-11.12H5.04a4.848,4.848,0,0,1,2.168.44A3.059,3.059,0,0,1,8.536-9.488,3.265,3.265,0,0,1,8.976-7.808ZM5.04-6a2.224,2.224,0,0,0,1.552-.472A1.726,1.726,0,0,0,7.1-7.808q0-1.824-2.064-1.824H3.024V-6ZM18.8-4.624a5.7,5.7,0,0,1-.064.9H12a2.446,2.446,0,0,0,.784,1.7,2.475,2.475,0,0,0,1.728.64,2.134,2.134,0,0,0,2.08-1.232H18.56A3.971,3.971,0,0,1,17.112-.632a4.249,4.249,0,0,1-2.6.776,4.5,4.5,0,0,1-2.264-.568,4.041,4.041,0,0,1-1.568-1.6,4.881,4.881,0,0,1-.568-2.392,5,5,0,0,1,.552-2.392A3.882,3.882,0,0,1,12.216-8.4a4.619,4.619,0,0,1,2.3-.56,4.49,4.49,0,0,1,2.224.544,3.844,3.844,0,0,1,1.52,1.528A4.6,4.6,0,0,1,18.8-4.624ZM16.9-5.2a2.076,2.076,0,0,0-.72-1.616,2.574,2.574,0,0,0-1.744-.608,2.343,2.343,0,0,0-1.616.6,2.507,2.507,0,0,0-.8,1.624ZM25.04-8.96a3.953,3.953,0,0,1,1.864.432,3.072,3.072,0,0,1,1.288,1.28A4.211,4.211,0,0,1,28.656-5.2V0H26.848V-4.928a2.559,2.559,0,0,0-.592-1.816,2.107,2.107,0,0,0-1.616-.632,2.133,2.133,0,0,0-1.624.632,2.537,2.537,0,0,0-.6,1.816V0H20.592V-8.816h1.824v1.008a3.019,3.019,0,0,1,1.144-.848A3.657,3.657,0,0,1,25.04-8.96Zm5.328,4.512A4.879,4.879,0,0,1,30.92-6.8a4.046,4.046,0,0,1,1.5-1.592,4.059,4.059,0,0,1,2.12-.568,4.134,4.134,0,0,1,1.7.376,3.487,3.487,0,0,1,1.336,1V-11.84h1.84V0h-1.84V-1.328a3.415,3.415,0,0,1-1.24,1.056,3.847,3.847,0,0,1-1.816.416,3.945,3.945,0,0,1-2.1-.584,4.122,4.122,0,0,1-1.5-1.632A5.021,5.021,0,0,1,30.368-4.448Zm7.216.032A3.192,3.192,0,0,0,37.208-6a2.639,2.639,0,0,0-.984-1.024,2.574,2.574,0,0,0-1.312-.352,2.621,2.621,0,0,0-1.312.344,2.594,2.594,0,0,0-.984,1.008,3.147,3.147,0,0,0-.376,1.576,3.284,3.284,0,0,0,.376,1.6A2.653,2.653,0,0,0,33.608-1.8a2.544,2.544,0,0,0,1.3.36,2.574,2.574,0,0,0,1.312-.352,2.626,2.626,0,0,0,.984-1.032A3.238,3.238,0,0,0,37.584-4.416Zm5.168-5.568a1.13,1.13,0,0,1-.832-.336,1.13,1.13,0,0,1-.336-.832,1.13,1.13,0,0,1,.336-.832,1.13,1.13,0,0,1,.832-.336,1.111,1.111,0,0,1,.816.336,1.13,1.13,0,0,1,.336.832,1.13,1.13,0,0,1-.336.832A1.111,1.111,0,0,1,42.752-9.984Zm.9,1.168V0H41.824V-8.816ZM50.5-8.96a3.953,3.953,0,0,1,1.864.432,3.072,3.072,0,0,1,1.288,1.28A4.211,4.211,0,0,1,54.112-5.2V0H52.3V-4.928a2.559,2.559,0,0,0-.592-1.816A2.107,2.107,0,0,0,50.1-7.376a2.133,2.133,0,0,0-1.624.632,2.537,2.537,0,0,0-.6,1.816V0H46.048V-8.816h1.824v1.008a3.019,3.019,0,0,1,1.144-.848A3.657,3.657,0,0,1,50.5-8.96Zm9.488,0a3.909,3.909,0,0,1,1.816.408,3.488,3.488,0,0,1,1.24,1.016v-1.28h1.84V.144a4.5,4.5,0,0,1-.512,2.168,3.7,3.7,0,0,1-1.48,1.5,4.647,4.647,0,0,1-2.312.544,5.017,5.017,0,0,1-2.976-.84,3.1,3.1,0,0,1-1.344-2.28h1.808a1.963,1.963,0,0,0,.888,1.112,3.007,3.007,0,0,0,1.624.424A2.428,2.428,0,0,0,62.36,2.1,2.625,2.625,0,0,0,63.04.144V-1.328A3.719,3.719,0,0,1,61.784-.28a3.754,3.754,0,0,1-1.8.424,3.945,3.945,0,0,1-2.1-.584,4.122,4.122,0,0,1-1.5-1.632,5.021,5.021,0,0,1-.552-2.376A4.879,4.879,0,0,1,56.376-6.8a4.046,4.046,0,0,1,1.5-1.592A4.029,4.029,0,0,1,59.984-8.96ZM63.04-4.416A3.192,3.192,0,0,0,62.664-6a2.639,2.639,0,0,0-.984-1.024,2.574,2.574,0,0,0-1.312-.352,2.62,2.62,0,0,0-1.312.344,2.594,2.594,0,0,0-.984,1.008A3.147,3.147,0,0,0,57.7-4.448a3.284,3.284,0,0,0,.376,1.6A2.653,2.653,0,0,0,59.064-1.8a2.544,2.544,0,0,0,1.3.36,2.574,2.574,0,0,0,1.312-.352,2.626,2.626,0,0,0,.984-1.032A3.238,3.238,0,0,0,63.04-4.416ZM76.512.112a5.76,5.76,0,0,1-2.856-.728,5.394,5.394,0,0,1-2.064-2.032,5.722,5.722,0,0,1-.76-2.936,5.679,5.679,0,0,1,.76-2.928,5.411,5.411,0,0,1,2.064-2.024,5.76,5.76,0,0,1,2.856-.728,5.792,5.792,0,0,1,2.872.728A5.354,5.354,0,0,1,81.44-8.512a5.726,5.726,0,0,1,.752,2.928,5.77,5.77,0,0,1-.752,2.936A5.337,5.337,0,0,1,79.384-.616,5.792,5.792,0,0,1,76.512.112Zm0-1.584a3.833,3.833,0,0,0,1.968-.5,3.494,3.494,0,0,0,1.352-1.44,4.624,4.624,0,0,0,.488-2.168,4.575,4.575,0,0,0-.488-2.16A3.452,3.452,0,0,0,78.48-9.168a3.881,3.881,0,0,0-1.968-.5,3.881,3.881,0,0,0-1.968.5,3.452,3.452,0,0,0-1.352,1.424,4.575,4.575,0,0,0-.488,2.16,4.624,4.624,0,0,0,.488,2.168,3.494,3.494,0,0,0,1.352,1.44A3.833,3.833,0,0,0,76.512-1.472Zm9.3-6.064a2.865,2.865,0,0,1,1.064-1.048,3.147,3.147,0,0,1,1.576-.376v1.888h-.464a2.221,2.221,0,0,0-1.624.544,2.6,2.6,0,0,0-.552,1.888V0H83.984V-8.816h1.824ZM89.52-4.448A4.879,4.879,0,0,1,90.072-6.8a4.046,4.046,0,0,1,1.5-1.592A4.059,4.059,0,0,1,93.7-8.96a4.134,4.134,0,0,1,1.7.376,3.487,3.487,0,0,1,1.336,1V-11.84h1.84V0h-1.84V-1.328A3.415,3.415,0,0,1,95.5-.272,3.847,3.847,0,0,1,93.68.144a3.945,3.945,0,0,1-2.1-.584,4.122,4.122,0,0,1-1.5-1.632A5.021,5.021,0,0,1,89.52-4.448Zm7.216.032A3.192,3.192,0,0,0,96.36-6a2.639,2.639,0,0,0-.984-1.024,2.574,2.574,0,0,0-1.312-.352,2.621,2.621,0,0,0-1.312.344,2.594,2.594,0,0,0-.984,1.008,3.147,3.147,0,0,0-.376,1.576,3.284,3.284,0,0,0,.376,1.6A2.653,2.653,0,0,0,92.76-1.8a2.544,2.544,0,0,0,1.3.36,2.574,2.574,0,0,0,1.312-.352,2.626,2.626,0,0,0,.984-1.032A3.238,3.238,0,0,0,96.736-4.416Zm12.32-.208a5.7,5.7,0,0,1-.064.9h-6.736a2.446,2.446,0,0,0,.784,1.7,2.475,2.475,0,0,0,1.728.64,2.134,2.134,0,0,0,2.08-1.232h1.968a3.971,3.971,0,0,1-1.448,1.992,4.249,4.249,0,0,1-2.6.776A4.5,4.5,0,0,1,102.5-.424a4.041,4.041,0,0,1-1.568-1.6,4.881,4.881,0,0,1-.568-2.392,5,5,0,0,1,.552-2.392A3.882,3.882,0,0,1,102.472-8.4a4.619,4.619,0,0,1,2.3-.56,4.49,4.49,0,0,1,2.224.544,3.844,3.844,0,0,1,1.52,1.528A4.6,4.6,0,0,1,109.056-4.624Zm-1.9-.576a2.076,2.076,0,0,0-.72-1.616,2.574,2.574,0,0,0-1.744-.608,2.343,2.343,0,0,0-1.616.6,2.507,2.507,0,0,0-.8,1.624Zm5.52-2.336a2.865,2.865,0,0,1,1.064-1.048,3.147,3.147,0,0,1,1.576-.376v1.888h-.464a2.221,2.221,0,0,0-1.624.544,2.6,2.6,0,0,0-.552,1.888V0h-1.824V-8.816h1.824Zm7.52,7.68a4.442,4.442,0,0,1-1.864-.376,3.274,3.274,0,0,1-1.3-1.024,2.552,2.552,0,0,1-.512-1.448H118.4a1.287,1.287,0,0,0,.536.936,1.946,1.946,0,0,0,1.224.376,2.062,2.062,0,0,0,1.192-.3.893.893,0,0,0,.424-.76.78.78,0,0,0-.472-.736,8.847,8.847,0,0,0-1.5-.528,14.439,14.439,0,0,1-1.616-.528,2.833,2.833,0,0,1-1.08-.784,2.055,2.055,0,0,1-.456-1.392,2.171,2.171,0,0,1,.416-1.288,2.77,2.77,0,0,1,1.192-.92,4.454,4.454,0,0,1,1.784-.336,3.684,3.684,0,0,1,2.424.76,2.729,2.729,0,0,1,.984,2.072h-1.824a1.3,1.3,0,0,0-.48-.944,1.8,1.8,0,0,0-1.168-.352,1.9,1.9,0,0,0-1.1.272.842.842,0,0,0-.384.72.779.779,0,0,0,.256.592,1.824,1.824,0,0,0,.624.376q.368.136,1.088.344a11.836,11.836,0,0,1,1.576.52,2.934,2.934,0,0,1,1.064.776,2.053,2.053,0,0,1,.464,1.36,2.281,2.281,0,0,1-.416,1.344,2.758,2.758,0,0,1-1.176.928A4.382,4.382,0,0,1,120.192.144Z" transform="translate(1.3 14.82)" fill="#fff"/></g></g></svg>