<svg xmlns="http://www.w3.org/2000/svg" xmlns:xlink="http://www.w3.org/1999/xlink" 
width="54.501" height="52.442" viewBox="0 0 54.501 52.442">
  <defs>
    <linearGradient id="linear-gradient" x1="0.874" y1="0.981" x2="0.033" y2="0.027" gradientUnits="objectBoundingBox">
      <stop offset="0" stop-color="#fff"/>
      <stop offset="1" stop-color="#cecac8"/>
    </linearGradient>
    <filter id="Path_1170" x="0" y="0" width="54.501" height="52.442" filterUnits="userSpaceOnUse">
      <feOffset dx="1" dy="1" input="SourceAlpha"/>
      <feGaussianBlur stdDeviation="0.5" result="blur"/>
      <feFlood flood-opacity="0.431"/>
      <feComposite operator="in" in2="blur"/>
      <feComposite in="SourceGraphic"/>
    </filter>
    <filter id="Path_1170-2" x="0" y="0" width="54.501" height="52.442" filterUnits="userSpaceOnUse">
      <feOffset dy="3" input="SourceAlpha"/>
      <feGaussianBlur stdDeviation="3" result="blur-2"/>
      <feFlood flood-opacity="0.161" result="color"/>
      <feComposite operator="out" in="SourceGraphic" in2="blur-2"/>
      <feComposite operator="in" in="color"/>
      <feComposite operator="in" in2="SourceGraphic"/>
    </filter>
  </defs>
  <g data-type="innerShadowGroup">
    <g transform="matrix(1, 0, 0, 1, 0, 0)" filter="url(#Path_1170)">
      <path id="Path_1170-3" data-name="Path 1170" d="M-1033.073,1005.8a4.2,4.2,0,0,1,4.18-4.2,4.205,4.205,0,0,1,4.2,4.2,4.2,4.2,0,0,1-4.2,4.2A4.2,4.2,0,0,1-1033.073,1005.8Zm-21,0a4.2,4.2,0,0,1,4.18-4.2,4.206,4.206,0,0,1,4.2,4.2,4.205,4.205,0,0,1-4.2,4.2A4.2,4.2,0,0,1-1054.077,1005.8Zm29.383-6.3h-25.2a4.206,4.206,0,0,1-4.2-4.2,4.073,4.073,0,0,1,.525-2.016l2.836-5.146-7.562-15.942h-4.2v-4.2h6.869l1.975,4.2h15.683c-.017.281-.026.571-.026.863a14.511,14.511,0,0,0,10.764,14.014l-1.028,1.863a4.184,4.184,0,0,1-3.676,2.164h-15.648l-1.89,3.424-.063.252a.52.52,0,0,0,.525.525h24.323v4.2h0Zm-7.645-17.6a12.42,12.42,0,0,1-3.661-8.839,12.419,12.419,0,0,1,3.661-8.839,12.419,12.419,0,0,1,8.839-3.66,12.418,12.418,0,0,1,8.839,3.66,12.42,12.42,0,0,1,3.661,8.839,12.42,12.42,0,0,1-3.661,8.839,12.419,12.419,0,0,1-8.839,3.661A12.42,12.42,0,0,1-1032.339,981.895Zm7.814-3.636a1.309,1.309,0,0,0-.376.956,1.284,1.284,0,0,0,.366.931,1.385,1.385,0,0,0,1.035.374,1.389,1.389,0,0,0,1.036-.374,1.287,1.287,0,0,0,.365-.931,1.31,1.31,0,0,0-.375-.956,1.385,1.385,0,0,0-1.026-.38A1.383,1.383,0,0,0-1024.525,978.259Zm-.071-2.227h2.122l.244-10.438h-2.6Z" transform="translate(1063 -960.06)" fill="url(#linear-gradient)"/>
    </g>
    <g transform="matrix(1, 0, 0, 1, 0, 0)" filter="url(#Path_1170-2)">
      <path id="Path_1170-4" data-name="Path 1170" d="M-1033.073,1005.8a4.2,4.2,0,0,1,4.18-4.2,4.205,4.205,0,0,1,4.2,4.2,4.2,4.2,0,0,1-4.2,4.2A4.2,4.2,0,0,1-1033.073,1005.8Zm-21,0a4.2,4.2,0,0,1,4.18-4.2,4.206,4.206,0,0,1,4.2,4.2,4.205,4.205,0,0,1-4.2,4.2A4.2,4.2,0,0,1-1054.077,1005.8Zm29.383-6.3h-25.2a4.206,4.206,0,0,1-4.2-4.2,4.073,4.073,0,0,1,.525-2.016l2.836-5.146-7.562-15.942h-4.2v-4.2h6.869l1.975,4.2h15.683c-.017.281-.026.571-.026.863a14.511,14.511,0,0,0,10.764,14.014l-1.028,1.863a4.184,4.184,0,0,1-3.676,2.164h-15.648l-1.89,3.424-.063.252a.52.52,0,0,0,.525.525h24.323v4.2h0Zm-7.645-17.6a12.42,12.42,0,0,1-3.661-8.839,12.419,12.419,0,0,1,3.661-8.839,12.419,12.419,0,0,1,8.839-3.66,12.418,12.418,0,0,1,8.839,3.66,12.42,12.42,0,0,1,3.661,8.839,12.42,12.42,0,0,1-3.661,8.839,12.419,12.419,0,0,1-8.839,3.661A12.42,12.42,0,0,1-1032.339,981.895Zm7.814-3.636a1.309,1.309,0,0,0-.376.956,1.284,1.284,0,0,0,.366.931,1.385,1.385,0,0,0,1.035.374,1.389,1.389,0,0,0,1.036-.374,1.287,1.287,0,0,0,.365-.931,1.31,1.31,0,0,0-.375-.956,1.385,1.385,0,0,0-1.026-.38A1.383,1.383,0,0,0-1024.525,978.259Zm-.071-2.227h2.122l.244-10.438h-2.6Z" transform="translate(1063 -960.06)" fill="#fff"/>
    </g>
  </g>
</svg>
