<svg xmlns="http://www.w3.org/2000/svg" xmlns:xlink="http://www.w3.org/1999/xlink" width="345" height="215.872" viewBox="0 0 345 215.872"><defs><linearGradient id="a" y1="0.519" x2="1" y2="0.52" gradientUnits="objectBoundingBox"><stop offset="0" stop-color="#83d9d2"/><stop offset="1" stop-color="#39d7be"/></linearGradient><clipPath id="b"><rect width="345" height="215.872" rx="10" transform="translate(0 13)" fill="url(#a)"/></clipPath><linearGradient id="c" y1="0.519" x2="1" y2="0.52" gradientUnits="objectBoundingBox"><stop offset="0" stop-color="#ffbe96"/><stop offset="1" stop-color="#fe8eab"/></linearGradient><linearGradient id="d" x1="0.036" y1="0.636" x2="0.967" y2="0.371" gradientUnits="objectBoundingBox"><stop offset="0" stop-color="#fff" stop-opacity="0.4"/><stop offset="1" stop-color="#fffefe" stop-opacity="0"/></linearGradient></defs><g transform="translate(0 -13)" clip-path="url(#b)"><rect width="345" height="212" rx="10" transform="translate(-2.5 15.064)" fill="url(#c)"/><g transform="translate(-352 -48)"><g transform="translate(50 -120)" opacity="0.53"><path d="M104.123,20.721l.845,150.745s.827.437,0,.669C97.719,174.171,95.168,174,87,174A87.016,87.016,0,0,1,38.109,15.012c.1-.072,3.15,0,3.15,0l55-.051Z" transform="translate(542 168)" fill="url(#d)"/><path d="M99.393,20.022S113.458-8.8,104.425,32.243C95.375,73.366,85.055,190,85.055,190s.769,5.266-.7,5.065A97.936,97.936,0,0,1,0,98,99.931,99.931,0,0,1,47.176,13.611c1.431-.886,1.778,1.374,3.4.418C62.984,6.733,99.393,20.022,99.393,20.022Z" transform="translate(654.244 287.447) rotate(83)" fill="url(#d)"/></g></g></g></svg>